<?xml version="1.0" standalone="no"?>
<!DOCTYPE svg PUBLIC "-//W3C//DTD SVG 20010904//EN"
 "http://www.w3.org/TR/2001/REC-SVG-20010904/DTD/svg10.dtd">
<svg version="1.0" xmlns="http://www.w3.org/2000/svg"
 width="1280.000000pt" height="640.000000pt" viewBox="0 0 1280.000000 640.000000"
 preserveAspectRatio="xMidYMid meet">
<metadata>
Created by potrace 1.15, written by Peter Selinger 2001-2017
</metadata>
<g transform="translate(0.000000,640.000000) scale(0.100000,-0.100000)"
fill="#000000" stroke="none">
<path d="M653 5283 c-39 -44 -83 -80 -124 -103 -50 -28 -69 -45 -88 -80 -13
-25 -39 -70 -57 -102 -19 -31 -34 -61 -34 -68 0 -6 -9 -19 -20 -28 -25 -22
-88 -152 -134 -277 -54 -147 -58 -155 -67 -155 -5 0 -9 -11 -9 -24 0 -14 -5
-28 -10 -31 -6 -3 -10 -19 -10 -34 0 -37 -23 -92 -66 -155 -34 -51 -42 -76
-24 -76 5 0 17 -24 25 -54 24 -82 72 -143 108 -137 5 1 28 -5 52 -13 41 -15
100 -12 193 9 20 5 22 2 22 -29 0 -42 20 -56 80 -56 57 0 106 23 125 59 24 47
85 74 183 79 121 7 165 -12 197 -84 13 -30 56 -103 94 -162 98 -152 100 -156
69 -190 -14 -15 -28 -35 -31 -44 -3 -10 -25 -22 -49 -28 -153 -38 -318 -84
-348 -97 -19 -8 -50 -28 -68 -45 -25 -25 -35 -29 -44 -20 -18 18 -41 15 -61
-8 -17 -21 -56 -27 -72 -11 -12 11 -55 -4 -55 -18 0 -5 5 -13 10 -16 6 -3 10
-16 10 -29 0 -22 8 -24 158 -49 817 -138 755 -123 845 -214 l47 -49 -14 -112
c-21 -154 -50 -260 -104 -372 l-46 -95 -2 -200 c-2 -325 -50 -487 -208 -699
-36 -49 -66 -95 -66 -103 0 -22 45 -33 135 -33 101 0 123 8 187 65 66 59 114
73 165 45 48 -25 103 -25 186 0 72 22 127 61 127 90 0 10 7 23 15 30 13 11 13
14 -1 27 -20 20 -11 56 23 101 l25 34 -21 101 c-27 128 -51 297 -51 360 0 26
-4 47 -10 47 -28 0 -25 -114 11 -330 28 -174 28 -166 2 -162 -16 2 -23 -2 -23
-13 0 -8 -11 -20 -25 -25 -30 -11 -32 -26 -5 -35 24 -8 26 -42 4 -73 -12 -18
-24 -22 -52 -20 l-37 3 3 75 c2 41 10 102 19 135 29 115 -1 372 -53 446 -19
28 -28 55 -31 103 -6 64 -5 66 21 76 17 6 34 25 46 52 29 63 24 77 -11 38 -17
-19 -28 -27 -25 -18 3 10 17 56 31 103 14 46 30 87 35 90 16 10 30 -32 30 -92
0 -65 15 -104 24 -62 3 13 7 69 9 124 4 95 6 103 40 159 21 33 37 66 37 73 0
20 20 16 78 -18 45 -26 52 -33 46 -52 -16 -54 -118 -237 -158 -286 -77 -94
-74 -123 40 -316 42 -71 92 -166 111 -210 78 -182 143 -277 211 -307 42 -19
44 -22 39 -54 -3 -19 -23 -58 -43 -87 -21 -29 -39 -53 -39 -55 -3 -3 -96 -18
-210 -32 -96 -12 -114 -18 -94 -30 7 -5 -6 -11 -37 -16 -27 -4 -52 -11 -55
-17 -4 -5 -63 -12 -132 -16 -70 -4 -130 -11 -134 -15 -9 -10 255 0 365 14 65
9 80 14 98 37 20 25 29 28 100 31 93 5 92 -9 -1 -32 -55 -13 -57 -14 -22 -15
20 -1 37 -3 37 -6 0 -3 -39 -43 -86 -89 -57 -56 -85 -90 -82 -102 7 -36 46
-45 185 -42 165 4 175 10 216 124 16 43 31 92 34 107 4 20 20 38 57 61 28 18
57 40 65 49 9 12 30 17 70 18 l56 1 -41 9 c-48 11 -97 51 -92 77 2 9 18 23 36
31 17 8 32 22 32 31 0 9 -20 48 -44 86 -41 66 -44 74 -55 185 -10 99 -10 129
3 200 9 46 20 170 25 276 10 204 20 246 64 262 12 5 126 14 252 20 280 14 453
27 605 46 118 15 167 11 181 -16 34 -66 126 -279 146 -339 59 -176 25 -293
-137 -465 -51 -55 -117 -136 -146 -180 -39 -61 -68 -93 -116 -128 -34 -25 -89
-72 -121 -105 l-58 -59 53 -6 c82 -10 229 -8 271 4 48 13 89 70 85 119 -3 31
1 36 53 67 40 24 64 48 90 89 144 235 227 344 261 344 18 0 20 -4 14 -32 -16
-82 -138 -280 -251 -408 -37 -41 -70 -85 -75 -97 -5 -12 -27 -34 -50 -49 -22
-15 -40 -30 -40 -34 0 -13 29 -20 78 -20 l47 1 -24 20 c-13 11 -22 21 -20 24
3 2 110 11 239 20 129 8 256 17 281 20 l46 5 -1 -81 c-1 -105 7 -112 95 -80
41 15 103 27 174 32 143 12 153 17 33 18 -54 1 -98 4 -98 8 0 4 12 19 27 35
14 15 29 44 32 65 l6 38 98 3 c53 1 97 6 97 11 0 4 -33 11 -73 14 -40 3 -90
12 -111 21 -36 15 -37 17 -34 58 3 38 6 43 35 50 42 11 59 38 77 123 20 95 36
138 97 256 75 146 151 241 179 224 6 -3 18 -21 28 -38 14 -26 17 -57 16 -172
-1 -259 -73 -504 -158 -541 -26 -11 -27 -13 -9 -14 32 0 38 -18 14 -44 -13
-14 -19 -29 -15 -40 5 -12 -19 -43 -88 -114 -52 -53 -103 -110 -113 -125 -16
-26 -17 -30 -2 -44 9 -10 48 -20 100 -26 150 -19 238 17 280 113 23 53 31 59
77 61 l35 1 -42 11 c-75 18 -45 36 62 38 l60 1 -45 10 c-25 5 -55 12 -67 14
-13 2 -23 8 -23 13 0 16 55 31 165 45 l110 13 -83 2 c-113 1 -122 7 -122 79 0
140 42 367 102 551 22 69 43 151 45 182 5 55 4 59 -28 91 -74 72 -89 115 -37
104 44 -9 53 -19 78 -87 13 -32 26 -61 30 -64 4 -2 20 0 36 4 l29 8 -27 11
c-28 12 -51 41 -63 81 -7 23 -6 24 34 18 23 -3 63 -19 90 -36 26 -17 58 -31
70 -31 11 0 30 -5 40 -12 15 -9 22 -8 36 5 18 18 71 22 95 7 12 -7 10 -11 -10
-18 -14 -5 -44 -13 -67 -17 -24 -4 -43 -10 -43 -14 0 -12 48 -61 60 -61 5 0
10 7 10 15 0 24 41 39 110 39 52 0 81 -7 144 -34 44 -18 96 -48 117 -67 20
-18 46 -33 57 -33 11 0 33 -5 48 -10 24 -10 26 -14 21 -50 -7 -53 -124 -270
-146 -270 -27 1 -154 93 -178 129 -44 66 -29 104 65 165 37 23 74 51 82 61 14
17 13 17 -10 10 -14 -4 -50 -20 -80 -35 -123 -62 -156 -61 -201 4 -13 20 -27
36 -32 36 -20 0 71 -135 179 -268 45 -54 19 -48 -48 12 -56 50 -88 68 -88 50
0 -59 360 -317 515 -370 13 -4 15 -8 7 -11 -32 -12 7 -23 81 -23 l82 0 140
-141 140 -141 -125 5 c-112 5 -117 5 -45 -4 167 -19 222 -31 305 -66 322 -134
527 -162 785 -107 66 14 142 29 169 33 28 5 53 15 58 25 5 9 37 30 71 48 236
118 420 337 521 615 46 129 58 201 65 373 l6 165 60 -3 c33 -2 73 -10 89 -18
27 -13 31 -13 39 1 17 31 27 2 27 -80 0 -88 -6 -101 -45 -97 -11 1 -27 -2 -35
-8 -13 -9 -10 -15 17 -40 45 -40 99 -53 233 -54 96 -1 115 1 115 14 0 26 -111
74 -182 78 l-63 4 0 95 0 94 466 -3 466 -3 30 -90 c35 -109 80 -191 157 -287
160 -202 415 -364 666 -424 187 -45 169 -35 308 -175 70 -71 127 -133 127
-139 0 -5 -7 -10 -15 -10 -8 0 -15 -4 -15 -9 0 -6 21 -13 48 -16 61 -9 149
-51 157 -75 4 -11 18 -22 33 -25 58 -12 191 -46 270 -70 264 -79 554 -43 857
105 355 175 573 462 661 872 25 116 25 372 1 486 -56 254 -168 464 -342 637
-254 254 -570 374 -983 375 l-133 0 -77 54 c-137 95 -276 155 -453 193 -125
27 -415 24 -519 -4 -115 -32 -182 -60 -249 -103 -67 -43 -111 -51 -149 -24
-12 8 -22 24 -22 35 0 31 36 94 85 148 45 52 56 79 77 189 14 73 14 73 -71 97
l-53 16 8 37 c5 20 9 73 9 117 0 120 -25 163 -176 303 -67 61 -128 112 -135
112 -8 0 -25 -17 -38 -38 -13 -22 -60 -68 -103 -104 -103 -85 -244 -191 -248
-186 -2 1 4 25 13 53 13 38 24 53 47 63 49 21 59 28 63 42 3 9 -3 11 -22 8
-25 -5 -26 -4 -20 31 4 25 22 52 57 88 28 29 47 56 43 60 -4 4 -49 -7 -99 -25
-51 -18 -96 -34 -102 -35 -5 -1 -11 16 -13 38 -2 22 -7 44 -12 49 -12 12 -22
-32 -18 -80 3 -37 5 -40 53 -55 53 -17 69 -48 30 -59 -13 -3 -21 -15 -23 -35
-6 -64 -132 -285 -163 -285 -32 0 33 157 101 243 55 69 38 83 -22 18 -60 -65
-128 -186 -128 -227 0 -28 -4 -32 -42 -40 -55 -12 -66 -38 -12 -28 l39 7 -24
-26 c-40 -44 -178 -77 -196 -47 -7 11 4 13 48 10 27 -2 30 2 41 51 4 19 14 28
36 32 38 8 38 16 0 52 -23 22 -41 29 -84 33 -73 6 -120 -11 -147 -54 -37 -61
-72 -70 -409 -104 -449 -45 -723 -65 -1166 -85 -182 -8 -389 -22 -460 -31 -71
-9 -190 -16 -264 -17 -142 0 -623 17 -920 34 -295 16 -567 21 -550 11 17 -12
160 -23 675 -54 306 -18 470 -22 950 -23 377 0 540 -3 465 -8 -110 -7 -1645
-1 -1875 8 -109 4 -109 4 -56 -10 162 -41 679 -59 1461 -52 611 6 1348 29
1485 47 44 5 199 21 345 35 146 14 313 32 372 41 123 19 152 15 167 -23 5 -16
17 -39 27 -53 16 -26 15 -27 -32 -76 -39 -41 -58 -52 -93 -58 -58 -9 -151 -59
-212 -114 l-49 -44 -84 12 c-67 10 -91 10 -114 1 -31 -13 -134 -116 -307 -306
-112 -124 -191 -195 -216 -195 -9 0 -24 11 -33 25 -9 14 -26 25 -37 25 -19 0
-20 -2 -9 -17 7 -10 -2 -1 -21 19 -60 65 -208 122 -408 157 -119 21 -186 46
-222 82 -13 13 -37 29 -54 34 -26 9 -30 15 -31 50 0 22 -6 50 -12 61 -16 31
-94 77 -192 114 -47 18 -128 51 -180 72 -137 58 -169 66 -181 48 -5 -9 -6 -45
-3 -82 l7 -68 -69 0 c-183 0 -397 -64 -544 -163 -139 -94 -242 -200 -346 -356
l-49 -74 -6 129 c-6 127 -26 227 -56 292 -27 58 -29 34 -6 -80 27 -136 28
-168 7 -416 -17 -193 -17 -194 5 -281 13 -53 19 -99 15 -115 -8 -32 13 -86 33
-86 13 0 13 3 3 15 -10 12 -10 24 -1 54 6 21 11 52 11 69 0 17 4 33 9 36 5 3
91 -3 192 -14 101 -11 247 -27 324 -35 84 -9 145 -20 153 -28 34 -35 -64 -82
-284 -137 -100 -25 -218 -24 -307 4 -44 13 -47 13 -35 -2 8 -10 9 -13 1 -9 -6
4 -60 14 -120 22 -215 29 -236 44 -246 173 -3 44 -11 101 -18 126 -10 39 -8
53 10 107 26 78 26 77 -1 81 -33 4 -28 40 21 140 61 125 84 227 79 359 l-3
108 -62 123 c-74 145 -136 221 -220 265 -32 17 -125 57 -208 88 -131 49 -166
58 -280 71 -177 21 -254 37 -360 76 l-90 33 -235 3 c-217 4 -623 -12 -656 -25
-43 -16 18 -21 329 -26 340 -6 483 -18 537 -47 29 -15 19 -22 -66 -44 -79 -20
-132 -21 -224 -3 -41 9 -174 27 -295 41 -272 32 -474 66 -629 105 -102 26
-122 29 -135 17 -9 -8 -26 -17 -38 -20 -13 -4 -23 -12 -23 -17 0 -18 32 -22
80 -11 38 9 66 8 127 -3 108 -19 416 -84 428 -90 27 -13 -139 10 -292 41 -188
37 -193 38 -193 25 0 -25 297 -82 579 -111 191 -20 237 -27 228 -36 -2 -2 -75
-11 -162 -19 -176 -17 -196 -23 -170 -48 9 -10 26 -17 38 -17 44 0 688 101
837 131 90 18 123 20 230 14 202 -11 294 -29 394 -74 202 -93 392 -252 455
-381 47 -97 58 -180 38 -284 -9 -46 -31 -117 -48 -157 -55 -132 -89 -229 -89
-254 0 -13 -18 -81 -40 -152 -44 -138 -50 -205 -17 -211 14 -3 17 4 17 37 0
22 8 60 17 83 l17 43 8 -43 c4 -23 14 -54 22 -70 39 -71 40 -72 29 -83 -27
-27 -421 51 -536 105 -48 23 -64 38 -106 101 -27 41 -52 88 -56 105 -8 35
-127 168 -123 136 6 -39 -23 -25 -68 33 -26 34 -50 59 -52 56 -3 -3 15 -36 41
-73 l46 -67 -47 -8 c-63 -10 -129 -32 -239 -78 -72 -31 -97 -37 -115 -30 -13
6 -163 55 -335 111 -342 110 -449 156 -459 196 -3 13 3 61 14 107 31 122 45
250 37 336 -3 42 -7 103 -8 135 -2 71 -21 85 -31 24 -11 -70 -38 -158 -48
-158 -6 0 -7 7 -4 16 13 35 18 121 7 128 -16 10 -14 110 3 150 8 19 22 39 33
45 16 9 16 12 3 21 -10 8 -107 10 -307 7 -161 -2 -304 -2 -318 0 -16 4 -25 12
-25 25 0 16 -14 53 -26 67 -2 2 -24 -15 -50 -38 -41 -36 -84 -54 -84 -35 0 4
31 51 70 104 38 54 77 114 87 134 21 41 29 43 62 17 18 -14 22 -23 16 -37 -5
-11 -7 -23 -6 -28 1 -4 -12 -37 -30 -72 -32 -66 -34 -109 -4 -84 8 7 29 41 46
76 16 35 34 64 40 64 5 0 105 -36 221 -80 117 -44 224 -80 240 -80 15 0 43
-10 63 -21 39 -23 51 -19 57 21 2 20 9 26 36 28 20 2 32 8 29 15 -11 34 -207
53 -225 22 -7 -14 -17 -12 -73 14 -35 17 -118 51 -184 76 -106 40 -125 51
-165 94 -51 57 -76 71 -120 71 -46 0 -59 10 -204 146 -72 69 -169 151 -216
184 -47 33 -114 82 -150 110 -36 28 -92 60 -125 72 -33 12 -88 44 -123 71 -71
54 -171 105 -225 114 -34 5 -37 3 -51 -32 -9 -21 -31 -54 -49 -74 -17 -20 -39
-47 -48 -60 -12 -19 -21 -23 -41 -18 -28 7 -138 86 -138 98 0 15 58 39 94 39
19 0 38 5 41 10 13 20 25 9 25 -22 0 -18 5 -40 11 -48 9 -13 12 -12 22 4 7 11
21 28 31 39 26 27 55 134 63 230 8 97 -1 96 -77 -9 -68 -93 -83 -107 -143
-129 -27 -10 -66 -31 -87 -46 l-38 -28 -36 19 c-22 11 -31 20 -24 23 32 14
-64 57 -126 57 -22 0 -27 4 -22 16 17 44 27 104 24 144 -5 70 -31 66 -105 -17z
m27 -110 c-19 -45 -55 -82 -67 -69 -8 8 15 58 50 113 27 41 32 45 35 26 2 -12
-6 -43 -18 -70z m555 -32 c-4 -23 -11 -41 -17 -41 -5 0 -7 8 -4 18 3 9 8 30
12 45 10 42 17 24 9 -22z m-674 -46 c10 -4 19 -13 19 -21 0 -23 28 -28 55 -10
22 15 25 15 25 1 0 -24 -46 -65 -72 -65 -30 1 -99 32 -117 53 -12 15 -8 21 25
54 36 36 39 37 42 16 2 -12 12 -25 23 -28z m539 -3 c0 -10 -71 -45 -77 -38 -3
2 12 14 34 25 45 24 43 23 43 13z m-302 -29 c4 -27 -23 -31 -53 -10 -24 18
-10 39 23 35 19 -2 28 -10 30 -25z m-32 -44 c21 -7 34 -7 51 2 26 14 114 2
120 -17 2 -6 -14 -23 -36 -37 -22 -15 -72 -54 -111 -88 -40 -34 -75 -57 -79
-53 -32 35 -41 156 -14 186 19 21 31 22 69 7z m680 -4 c17 -13 14 -14 -38 -15
-54 0 -68 7 -51 23 12 12 69 7 89 -8z m-939 -31 c19 -14 32 -28 29 -31 -6 -6
-86 43 -86 52 0 12 26 3 57 -21z m1073 -96 c0 -19 -33 -5 -67 27 -20 19 -40
35 -43 35 -3 0 -12 5 -20 10 -13 8 -12 11 5 24 19 14 24 11 73 -37 28 -28 52
-55 52 -59z m-540 30 c24 -21 41 -41 37 -44 -3 -4 -30 17 -59 46 -59 57 -45
56 22 -2z m328 33 c20 -10 84 -49 141 -85 57 -36 109 -66 116 -66 6 0 30 -14
53 -31 24 -17 45 -29 49 -26 3 3 -18 30 -46 60 -28 30 -51 57 -51 60 0 4 15 7
34 7 28 0 44 -11 97 -63 39 -38 107 -89 172 -127 117 -70 176 -114 165 -125
-3 -3 -25 3 -48 15 -63 32 -59 18 7 -25 32 -21 76 -49 97 -64 22 -14 53 -47
69 -73 16 -26 34 -45 39 -42 11 7 48 -25 48 -42 0 -7 -28 -45 -61 -86 -34 -40
-80 -99 -103 -132 l-41 -58 -339 4 -339 5 -28 34 c-46 57 -89 134 -96 172 -4
27 0 44 16 69 l22 33 -6 -46 c-5 -35 -3 -48 9 -58 9 -8 21 -33 27 -56 9 -35
14 -42 30 -38 30 8 33 23 10 44 -12 11 -21 23 -21 28 0 20 -31 243 -41 291
-14 70 -48 150 -63 150 -7 0 -17 -5 -23 -11 -29 -29 -48 142 -23 206 16 42 58
95 76 95 8 0 31 -9 52 -19z m-883 -22 c61 -54 37 -101 -30 -59 -39 24 -59 54
-51 76 9 23 43 16 81 -17z m153 -13 c-4 -25 -27 -28 -41 -4 -8 12 -7 21 2 32
18 21 43 2 39 -28z m359 -16 c66 -40 108 -149 60 -158 -10 -2 -42 15 -71 37
-84 65 -115 55 -189 -57 -75 -114 -74 -126 27 -187 36 -22 65 -44 66 -48 0
-13 -73 -105 -89 -112 -11 -4 -134 80 -215 146 -5 4 1 24 12 44 28 47 217 284
251 313 52 46 98 53 148 22z m183 -35 c25 -30 -25 -82 -59 -60 -16 9 -14 19
10 49 23 30 32 32 49 11z m-772 -15 c75 -40 76 -41 52 -98 -30 -71 -50 -86
-101 -79 -56 7 -82 32 -73 71 12 55 55 126 76 126 5 0 25 -9 46 -20z m219 -8
c6 -4 16 -20 22 -35 7 -17 18 -27 30 -27 11 0 23 -5 26 -10 7 -11 -80 -115
-171 -205 -34 -33 -64 -72 -68 -88 -3 -15 -20 -42 -37 -60 -29 -30 -30 -31
-23 -7 3 14 40 99 82 190 41 91 83 184 93 208 19 43 25 48 46 34z m566 -88 c3
-3 1 -14 -6 -25 -8 -14 -8 -42 2 -116 7 -54 16 -126 18 -160 5 -55 3 -63 -12
-63 -13 0 -16 -5 -11 -20 3 -11 9 -29 12 -40 5 -14 2 -20 -10 -20 -9 0 -34
-17 -55 -39 -41 -42 -118 -75 -193 -83 -55 -6 -62 4 -16 28 21 11 43 14 70 10
34 -6 39 -4 48 19 6 15 17 25 30 25 12 0 20 7 20 16 0 13 -7 15 -37 9 -46 -8
-207 -83 -269 -125 -25 -16 -47 -30 -50 -30 -8 0 32 55 152 205 166 209 225
302 175 275 -15 -8 -12 2 14 46 19 31 42 65 51 75 16 18 54 25 67 13z m-218
-21 c19 -9 37 -25 40 -34 13 -39 -75 -159 -116 -159 -26 0 -99 68 -99 92 0 32
37 84 73 102 41 20 58 20 102 -1z m8734 -134 c157 -131 179 -181 142 -323 -24
-91 -127 -329 -171 -396 -16 -25 -44 -53 -62 -62 -58 -32 -73 -29 -378 64
-162 50 -170 51 -170 34 0 -19 26 -34 119 -66 41 -14 79 -32 84 -41 13 -21 0
-89 -19 -96 -9 -3 -28 6 -45 23 -17 16 -63 47 -102 69 l-72 41 -6 70 c-4 39
-12 81 -18 92 -11 20 -9 21 25 19 28 -1 39 3 51 21 15 22 15 22 -36 22 -54 0
-113 19 -143 47 -26 23 -22 30 12 25 23 -3 30 -1 30 13 0 10 13 32 29 50 l28
33 44 -35 c56 -44 77 -55 90 -48 6 4 1 20 -12 42 l-22 35 22 28 c11 16 21 33
21 38 0 16 122 125 203 180 42 29 77 50 77 46 0 -4 -11 -36 -25 -70 -14 -34
-34 -102 -45 -151 -35 -152 -39 -163 -61 -163 -11 0 -37 9 -59 20 -22 11 -46
20 -55 20 -17 0 -91 -149 -102 -205 -6 -28 -5 -29 11 -16 10 8 38 55 62 103
24 48 47 88 50 88 3 0 20 -11 37 -24 18 -14 72 -42 121 -62 87 -36 89 -38 112
-91 29 -66 47 -69 42 -8 -2 25 -2 45 0 45 2 0 15 -9 29 -20 14 -11 30 -20 34
-20 19 0 8 50 -18 81 -18 20 -23 34 -16 36 7 3 23 13 36 24 23 17 25 25 24
101 -1 86 15 133 74 226 12 18 19 36 16 39 -18 17 -45 -23 -123 -182 -102
-206 -135 -241 -189 -201 -18 13 -18 19 -6 97 23 156 48 235 101 325 45 76
110 173 118 174 1 0 51 -41 111 -91z m-9346 32 c17 -7 27 -18 27 -31 0 -30
-59 -166 -80 -185 -17 -15 -22 -15 -64 4 -43 19 -46 22 -46 59 0 41 35 168 51
188 7 9 19 7 47 -6 20 -10 49 -23 65 -29z m923 -37 c-3 -9 -6 -20 -6 -25 0 -5
-4 -9 -10 -9 -11 0 -14 33 -3 43 12 13 25 7 19 -9z m8 -98 c-10 -20 -21 -36
-26 -36 -5 0 1 18 12 41 26 50 38 46 14 -5z m-560 -135 c16 -17 26 -34 23 -38
-8 -8 -97 76 -130 122 -19 27 -16 25 28 -12 28 -22 63 -55 79 -72z m590 82
c-11 -45 -53 -123 -67 -123 -8 0 0 26 23 75 36 76 56 98 44 48z m-690 -65 c42
-45 76 -89 76 -98 0 -27 -81 -97 -152 -130 -40 -18 -76 -44 -89 -61 -50 -71
-139 -110 -169 -74 -17 20 -27 151 -11 141 6 -4 11 -16 11 -27 0 -29 18 -59
35 -59 23 0 56 61 53 95 -3 28 -6 30 -45 33 -24 2 -43 8 -43 13 0 22 225 248
247 249 6 0 45 -37 87 -82z m-399 9 c28 -8 67 -18 88 -22 22 -3 37 -12 37 -20
0 -25 -24 -22 -97 12 -39 18 -76 33 -82 33 -5 0 -13 5 -17 12 -5 7 -2 9 7 6 8
-3 37 -12 64 -21z m-13 -41 c54 -23 59 -35 42 -86 -15 -42 -15 -122 -2 -255 2
-21 -2 -30 -14 -33 -12 -2 -17 5 -20 25 -2 20 -8 28 -21 27 -15 -2 -17 3 -11
29 6 29 5 30 -10 18 -10 -8 -24 -27 -32 -43 -8 -15 -22 -28 -30 -28 -14 0 -16
9 -11 53 3 28 8 62 12 73 5 16 -1 31 -23 55 l-29 34 39 73 c43 78 51 82 110
58z m628 6 c0 -5 -12 -19 -27 -33 l-26 -24 19 33 c17 30 34 42 34 24z m7975
-52 c7 -12 -20 -60 -34 -60 -4 0 -6 11 -3 25 5 29 3 30 -34 10 -31 -16 -74
-20 -74 -7 0 27 130 56 145 32z m-4886 -26 c19 -8 32 -16 29 -19 -7 -7 -97 25
-104 37 -7 11 18 5 75 -18z m-3194 -49 c-26 -33 -55 -50 -39 -22 21 37 58 79
62 69 2 -6 -9 -27 -23 -47z m3344 31 c34 -15 39 -36 9 -36 -14 0 -37 13 -54
31 l-29 31 25 -7 c14 -4 36 -12 49 -19z m-2821 -35 c15 -16 42 -57 60 -91 l34
-62 -189 4 c-115 3 -201 10 -220 17 -57 22 -44 35 82 85 50 20 104 45 120 55
45 29 82 26 113 -8z m2035 -28 c-7 -2 -19 -2 -25 0 -7 3 -2 5 12 5 14 0 19 -2
13 -5z m195 -20 c-10 -2 -26 -2 -35 0 -10 3 -2 5 17 5 19 0 27 -2 18 -5z
m5077 -3 c-28 -12 -75 -12 -75 0 0 6 21 10 48 9 35 0 42 -3 27 -9z m-4950 -25
c-30 -13 -45 -11 -45 6 0 5 17 9 38 8 l37 -1 -30 -13z m4792 9 c-12 -12 -342
-53 -509 -63 -254 -15 -524 -24 -517 -17 3 3 131 15 285 26 153 12 374 29 489
39 254 22 260 23 252 15z m1504 -34 c25 -14 24 -27 -1 -35 -22 -7 -70 18 -70
35 0 13 46 13 71 0z m-9031 -14 c0 -15 -21 -26 -51 -26 -24 0 -25 16 -1 29 25
15 52 13 52 -3z m-216 -35 c15 -16 15 -19 1 -31 -18 -15 -29 -7 -40 28 -8 28
15 30 39 3z m1632 -60 c-15 -21 -42 -74 -61 -119 -55 -131 -142 -252 -180
-252 -23 0 -16 16 41 89 78 100 44 79 -58 -36 -178 -201 -268 -274 -319 -258
-37 12 -21 41 39 71 68 33 254 213 296 286 41 70 30 96 -13 33 -82 -120 -204
-236 -302 -285 -51 -26 -99 -27 -99 -1 0 14 9 19 43 23 60 7 145 64 242 162
76 77 148 186 132 202 -10 10 -41 -20 -95 -91 -76 -100 -133 -155 -163 -155
-14 0 -43 -12 -65 -26 -36 -25 -38 -25 -51 -7 -20 27 -27 62 -14 77 14 17 4
26 -30 26 -23 0 -40 13 -84 67 -57 69 -85 93 -85 73 0 -7 8 -26 18 -42 13 -24
14 -32 4 -35 -7 -3 -38 -27 -69 -53 -31 -27 -86 -65 -122 -85 l-66 -37 -43 47
c-70 78 -202 288 -188 302 2 3 184 0 403 -6 219 -6 489 -12 601 -13 l203 -2
35 28 c20 16 43 45 52 65 15 33 16 34 20 13 2 -14 -7 -39 -22 -61z m4864 49
c0 -5 -16 -10 -36 -10 -21 0 -33 4 -29 10 3 6 19 10 36 10 16 0 29 -4 29 -10z
m2730 0 c12 -7 12 -12 2 -22 -14 -14 -63 -1 -70 20 -4 14 45 16 68 2z m-8937
-17 c-13 -2 -33 -2 -45 0 -13 2 -3 4 22 4 25 0 35 -2 23 -4z m305 -20 c-21 -2
-57 -2 -80 0 -24 2 -7 4 37 4 44 0 63 -2 43 -4z m387 -12 c35 -8 30 -9 -35 -9
-41 0 -86 4 -100 8 -35 11 81 12 135 1z m-1115 -14 c0 -7 -5 -18 -12 -25 -20
-20 1 -26 22 -7 30 28 46 6 20 -27 -15 -19 -33 -28 -71 -33 -27 -4 -52 -5 -55
-3 -6 7 76 108 87 108 5 0 9 -6 9 -13z m2314 -97 c-5 -68 -3 -100 4 -100 10 0
32 82 32 119 0 32 22 81 36 81 8 0 14 -8 14 -17 0 -31 -39 -355 -55 -460 -8
-57 -15 -133 -15 -170 0 -77 -8 -113 -23 -113 -41 0 -618 267 -680 314 -17 13
-15 19 37 107 31 51 77 141 103 200 55 124 45 118 207 120 55 1 142 4 191 8
50 5 105 9 123 9 l33 2 -7 -100z m7020 37 c16 -12 16 -13 -1 -28 -34 -30 -143
-63 -143 -44 0 15 32 65 47 74 25 15 76 13 97 -2z m-894 -22 c10 -12 6 -21
-19 -52 -17 -21 -31 -43 -31 -49 0 -23 -122 -65 -134 -46 -7 12 43 88 83 126
37 35 39 23 9 -39 -22 -45 -20 -67 5 -46 13 10 37 60 51 104 7 21 20 22 36 2z
m-2323 -122 c200 -80 229 -102 242 -183 5 -30 12 -86 16 -125 8 -97 -10 -64
-29 55 -9 52 -18 105 -21 116 -4 17 -39 37 -157 89 -84 37 -172 74 -195 82
-45 16 -65 33 -39 33 9 0 91 -30 183 -67z m2103 8 c-37 -46 -74 -64 -121 -59
-39 3 -41 16 -7 41 25 18 150 68 157 62 1 -2 -11 -22 -29 -44z m207 -2 c-7
-19 -24 -77 -37 -129 -26 -107 -40 -134 -40 -74 0 49 24 133 57 197 27 54 42
58 20 6z m849 -11 c-10 -50 -33 -76 -77 -88 -56 -15 -75 -10 -71 20 7 56 60
100 121 100 32 0 33 -1 27 -32z m-361 -19 c38 -11 83 -19 100 -19 42 0 68 -21
68 -54 0 -39 -28 -62 -97 -80 -65 -16 -76 -14 -76 14 0 25 -10 50 -21 50 -5 0
-9 -16 -9 -35 l0 -35 -70 0 c-64 0 -70 2 -70 20 0 12 9 39 20 60 11 22 21 52
22 67 3 49 -4 49 133 12z m-7967 -35 c-12 -19 -46 -50 -73 -69 -50 -35 -153
-80 -162 -71 -3 2 17 16 44 31 84 48 153 97 181 129 34 40 42 27 10 -20z
m7587 35 c73 -27 135 -85 135 -125 0 -61 -45 -71 -103 -23 -20 17 -35 35 -32
39 7 11 34 2 57 -18 20 -16 50 -9 43 10 -3 7 -21 23 -39 36 -29 20 -37 21 -54
11 -14 -9 -29 -10 -52 -3 -44 12 -57 35 -42 68 14 31 17 31 87 5z m1374 7 c-2
-2 -60 -19 -129 -36 -140 -36 -247 -81 -321 -136 -43 -32 -49 -33 -49 -16 0
60 195 157 363 182 58 8 143 12 136 6z m-8859 -51 c19 -30 20 -40 10 -69 -23
-72 -162 -168 -302 -210 -65 -19 -51 -2 20 24 104 39 226 122 252 171 18 33
-11 22 -70 -27 -102 -85 -266 -147 -305 -114 -23 19 -18 39 13 45 132 26 197
60 287 152 33 34 63 63 67 63 3 0 16 -16 28 -35z m7298 13 c-3 -7 -15 -14 -29
-16 -23 -2 -23 -2 -5 13 24 18 39 20 34 3z m1686 -4 c3 -9 6 -140 6 -293 0
-217 -3 -288 -15 -328 -16 -54 -49 -103 -69 -103 -12 0 -256 639 -256 671 0
13 18 21 73 33 172 38 252 44 261 20z m329 -40 c70 -26 126 -50 125 -53 -2 -3
-27 -52 -57 -109 -60 -116 -96 -157 -250 -281 l-104 -85 6 245 c5 249 14 307
50 332 23 15 102 -1 230 -49z m-4510 9 c-7 -2 -21 -2 -30 0 -10 3 -4 5 12 5
17 0 24 -2 18 -5z m2030 -7 c37 -7 70 -16 74 -19 6 -7 -25 -54 -71 -111 l-24
-29 -16 31 c-20 38 -33 47 -51 32 -11 -9 -11 -15 1 -38 18 -36 29 -111 17
-123 -7 -7 -18 2 -32 27 -17 29 -25 34 -34 25 -9 -9 -7 -21 11 -51 27 -48 27
-55 1 -124 -32 -86 -167 -281 -214 -308 -8 -5 -36 14 -76 52 -35 33 -69 60
-76 60 -15 0 -43 51 -43 81 0 37 417 509 448 509 10 -1 47 -7 85 -14z m315
-10 c56 -13 105 -26 109 -30 4 -3 6 -26 4 -50 -3 -61 24 -86 92 -86 l48 0 -19
28 c-44 62 -36 102 20 102 34 0 98 -56 98 -85 0 -28 -63 -82 -111 -95 -59 -16
-117 -7 -190 31 -43 23 -63 29 -71 21 -8 -8 8 -23 55 -52 70 -44 84 -62 62
-80 -20 -17 -57 -3 -110 41 -26 21 -51 39 -56 39 -20 0 -7 -25 31 -61 22 -21
40 -41 40 -45 0 -3 -16 -24 -35 -47 -19 -22 -43 -65 -52 -94 -28 -89 -36 -73
-33 70 1 62 -8 84 -26 56 -3 -6 -10 -67 -14 -135 -7 -116 -10 -129 -44 -199
-26 -52 -52 -88 -86 -117 -28 -24 -50 -49 -50 -56 0 -36 -95 -142 -127 -142
-24 0 -60 48 -88 118 -15 37 -35 76 -46 88 -19 21 -19 21 9 75 16 30 59 99 96
154 59 87 147 254 210 395 21 47 145 180 167 180 8 0 60 -11 117 -24z m-2639
-20 c-2 -2 -26 -15 -54 -29 l-50 -26 47 -1 47 0 35 -112 c57 -184 136 -465
136 -484 0 -22 -87 -161 -106 -168 -8 -3 -25 -1 -37 3 -46 18 -542 302 -554
317 -19 25 1 64 78 150 114 128 106 122 124 97 29 -42 338 -419 373 -455 20
-21 40 -38 44 -38 20 0 -60 111 -217 300 -47 58 -95 122 -106 142 -26 51 -25
127 2 162 28 35 18 33 -50 -13 -179 -122 -309 -298 -387 -526 -36 -105 -48
-117 -41 -40 22 259 331 600 642 709 60 21 89 26 74 12z m485 -164 c20 -158
20 -185 -2 -213 -36 -43 -46 -21 -70 142 -12 85 -25 166 -28 182 -7 29 10 38
20 11 3 -9 13 -74 21 -146 9 -72 21 -140 28 -152 11 -19 12 -17 15 24 2 24 -1
89 -7 143 -6 54 -11 119 -10 145 1 43 2 45 9 17 5 -16 16 -86 24 -153z m3704
-65 c51 -133 106 -282 123 -332 36 -106 48 -188 29 -200 -25 -15 -432 427
-478 519 -31 61 -29 106 6 139 21 21 201 115 222 116 3 1 47 -108 98 -242z
m-8118 230 c0 -2 -11 -18 -25 -37 -29 -39 -33 -32 -8 11 14 24 33 39 33 26z
m4276 -102 c13 -74 14 -108 4 -204 -6 -64 -15 -134 -21 -155 -12 -44 -114
-159 -137 -154 -10 2 -27 52 -52 148 -20 80 -49 189 -63 244 -37 135 -34 182
10 201 24 10 226 22 236 14 5 -3 15 -46 23 -94z m3312 85 c34 0 43 -3 35 -11
-16 -16 -138 -24 -147 -10 -13 20 5 33 36 27 17 -3 51 -6 76 -6z m-8088 -31
c0 -5 -9 -9 -20 -9 -33 0 -52 -51 -44 -120 3 -32 4 -67 0 -76 -6 -16 -8 -16
-25 0 -18 16 -23 16 -71 2 -69 -21 -200 -32 -200 -18 0 6 26 20 58 32 81 30
190 107 236 168 31 41 42 50 52 41 8 -6 14 -15 14 -20z m1344 12 c6 -10 -69
-419 -78 -429 -9 -8 -7 15 10 173 16 144 14 196 -6 165 -6 -8 -10 -27 -10 -42
0 -16 -4 -28 -10 -28 -15 0 -12 65 4 104 20 48 75 83 90 57z m8127 -52 c38
-28 69 -53 67 -54 -2 -2 -44 -19 -95 -38 -50 -20 -105 -43 -122 -51 -22 -12
-31 -13 -31 -5 0 11 102 199 108 199 1 0 34 -23 73 -51z m-4492 -60 c13 -61
14 -176 2 -183 -14 -9 -19 13 -26 134 -6 78 -5 111 3 106 6 -3 15 -29 21 -57z
m64 29 c21 -118 18 -216 -3 -177 -12 20 -32 178 -26 195 9 24 24 15 29 -18z
m2962 14 c-32 -11 -53 -25 -60 -39 -5 -13 -13 -23 -17 -23 -15 0 -8 27 13 54
17 22 28 26 67 25 l47 -1 -50 -16z m-115 -1 c0 -4 -9 -20 -20 -34 -39 -50
-164 -59 -237 -17 -36 21 -47 16 -32 -12 13 -23 97 -64 154 -74 l40 -7 -25 21
c-22 18 -23 21 -8 27 24 10 72 -8 76 -28 5 -22 -36 -37 -101 -37 -51 0 -166
16 -174 23 -2 3 -6 27 -10 55 -5 45 -3 51 18 63 41 22 319 40 319 20z m-7590
-6 c0 -11 -83 -95 -93 -95 -6 0 11 23 38 50 49 50 55 55 55 45z m7204 -33 c9
-15 -24 -72 -48 -83 -29 -13 -79 -4 -74 14 4 13 95 77 109 77 4 0 10 -3 13 -8z
m2596 -9 c23 -9 23 -11 5 -16 -11 -4 -101 -6 -200 -5 -202 1 -302 -13 -437
-62 -211 -77 -385 -208 -522 -393 -60 -81 -115 -186 -109 -204 3 -7 -2 -13
-10 -13 -15 0 -34 -38 -39 -80 -2 -20 2 -26 22 -28 78 -9 99 -32 29 -32 -155
0 -194 -330 -83 -715 14 -49 53 -148 86 -218 87 -187 57 -179 -40 11 -95 186
-132 341 -132 554 0 576 404 1077 965 1198 74 16 120 19 265 16 96 -1 186 -7
200 -13z m-9664 -10 c1 -7 2 -17 3 -22 1 -12 132 -95 241 -154 107 -57 182
-88 243 -98 61 -10 186 -71 219 -107 l25 -27 -23 -103 c-43 -188 -41 -184 -73
-177 -23 5 -29 2 -34 -15 -7 -27 -27 -17 -27 14 0 12 -6 28 -12 34 -10 10 -15
5 -23 -24 -5 -20 -14 -37 -20 -38 -5 0 -16 22 -24 49 -14 46 -16 48 -19 20 -4
-35 -19 -55 -26 -34 -2 8 -7 31 -11 52 -7 45 -32 46 -27 1 l4 -29 -26 35 c-15
19 -31 53 -36 75 -14 57 -42 109 -61 113 -15 3 -15 -3 2 -64 10 -36 32 -90 49
-120 36 -64 37 -89 10 -244 -12 -63 -25 -187 -30 -275 -6 -88 -15 -195 -21
-239 -11 -81 1 -371 21 -506 12 -84 13 -80 -5 -80 -29 0 -76 -31 -85 -55 -7
-18 -17 -25 -35 -25 -21 0 -25 -4 -21 -18 4 -12 -1 -26 -14 -37 -11 -10 -20
-28 -20 -41 0 -26 -20 -40 -77 -53 -38 -9 -38 -9 -6 -10 64 -2 82 -22 36 -39
l-28 -10 26 -1 c44 -2 42 -15 -3 -26 -32 -8 -42 -14 -40 -28 2 -14 -5 -17 -45
-17 -59 1 -122 14 -137 30 -8 9 -4 17 19 33 73 51 191 186 240 273 l50 89 0
160 c0 88 -2 189 -5 225 -2 36 -1 72 3 81 6 11 -3 29 -28 58 -36 44 -70 136
-59 164 3 8 12 18 20 21 23 9 16 71 -21 196 -65 214 -94 337 -109 458 -5 40
-44 122 -58 122 -12 0 -8 -18 16 -72 13 -31 14 -38 3 -38 -16 0 -84 48 -111
78 -24 28 -76 183 -83 249 -5 48 -3 54 23 80 17 15 51 40 77 55 27 16 52 39
57 53 9 23 15 26 52 23 25 -2 44 -8 44 -15z m4923 -24 c18 -16 31 -33 28 -36
-7 -6 -69 31 -87 52 -24 29 24 16 59 -16z m2769 24 c-10 -2 -28 -2 -40 0 -13
2 -5 4 17 4 22 1 32 -1 23 -4z m1765 -35 c-2 -5 -3 -47 -3 -95 0 -102 0 -102
-79 17 l-50 75 47 6 c58 8 88 6 85 -3z m312 -44 c50 -14 93 -28 97 -32 4 -4
-38 -126 -93 -272 -55 -146 -109 -290 -121 -320 -35 -95 -35 -95 -63 60 -8 47
-31 141 -51 210 -32 110 -37 141 -41 266 l-5 141 93 -14 c52 -7 135 -25 184
-39z m-384 -123 c44 -67 69 -115 69 -133 0 -15 -2 -28 -5 -28 -3 0 -18 26 -34
58 -16 31 -57 99 -90 151 -34 52 -61 99 -61 105 1 17 47 -41 121 -153z
m-10466 140 c-11 -9 -123 -41 -145 -41 -26 0 0 13 62 31 71 20 97 23 83 10z
m145 -6 c0 -8 17 -23 38 -34 36 -19 36 -19 12 -25 -14 -3 -104 -15 -200 -26
-96 -12 -203 -27 -237 -35 -35 -7 -63 -9 -63 -4 0 8 32 18 240 74 74 21 146
43 160 51 33 18 50 17 50 -1z m8645 6 c18 -4 25 -9 18 -14 -16 -10 -184 4
-177 14 6 10 114 10 159 0z m1505 -22 c0 -20 -114 -149 -131 -149 -15 0 -39
101 -29 120 11 21 81 48 128 49 26 1 32 -3 32 -20z m775 -19 c81 -42 121 -80
81 -80 -14 0 -166 96 -166 105 0 12 28 3 85 -25z m-9188 -27 c-3 -10 -5 -4 -5
12 0 17 2 24 5 18 2 -7 2 -21 0 -30z m4113 17 c0 -12 -54 -40 -78 -40 -30 0
-170 -49 -237 -83 -33 -16 -78 -39 -100 -50 -55 -27 -245 -216 -306 -304 -222
-322 -260 -734 -99 -1076 32 -67 37 -91 18 -85 -36 12 -106 201 -133 354 -37
215 -4 460 91 659 149 317 423 534 779 619 33 8 61 15 63 15 1 1 2 -3 2 -9z
m2921 -24 c43 -33 107 -100 304 -321 122 -136 155 -182 155 -210 0 -22 -1 -22
-62 10 -35 19 -153 72 -263 120 -110 47 -210 96 -222 107 -18 17 -23 32 -23
74 0 49 2 55 30 69 31 16 60 61 60 93 0 10 -9 27 -20 37 -20 18 -28 55 -11 55
4 0 28 -15 52 -34z m-2542 15 c14 -4 27 -13 29 -20 4 -11 -7 -13 -54 -8 -33 3
-77 13 -99 21 l-40 15 70 -1 c39 0 81 -3 94 -7z m2256 -6 c56 -9 115 -27 115
-35 0 -4 -107 -10 -237 -14 -131 -3 -305 -9 -386 -12 l-148 -7 3 34 3 34 65
-1 c36 0 144 -4 240 -8 142 -6 184 -5 220 7 25 8 54 13 65 11 11 -1 38 -6 60
-9z m1820 -158 c31 -59 54 -115 51 -123 -6 -16 -161 -94 -187 -94 -25 0 -60
51 -102 150 l-37 85 83 77 82 77 27 -32 c15 -18 52 -81 83 -140z m-2530 153
c11 -18 -15 -40 -46 -40 -37 0 -37 15 -1 34 33 18 39 19 47 6z m-7263 -97 c16
-102 12 -107 -69 -100 -37 4 -71 11 -76 16 -11 11 42 112 81 154 22 23 28 25
40 14 7 -8 18 -46 24 -84z m131 9 c6 -59 29 -151 55 -221 12 -32 -30 12 -45
46 -8 20 -23 35 -37 39 -53 13 -79 161 -36 204 35 35 56 13 63 -68z m9324 38
c12 -25 22 -50 22 -56 1 -15 -246 -244 -263 -244 -6 0 -30 19 -53 43 l-41 42
37 65 c48 83 92 127 166 167 80 44 104 40 132 -17z m-9643 30 c-19 -7 -156
-15 -179 -10 -22 6 64 17 130 18 47 1 63 -2 49 -8z m10690 -74 c170 -112 188
-135 147 -187 -42 -53 -641 -613 -648 -605 -9 9 144 425 259 704 l72 174 29
-6 c16 -3 80 -39 141 -80z m-10986 47 c-10 -2 -26 -2 -35 0 -10 3 -2 5 17 5
19 0 27 -2 18 -5z m5837 -76 c7 -64 6 -69 -11 -65 -16 3 -20 14 -22 62 -6 113
22 115 33 3z m83 45 c3 -30 1 -33 -19 -30 -15 2 -25 12 -30 30 -8 31 -2 40 26
36 15 -2 21 -12 23 -36z m111 -29 c28 -38 64 -94 81 -125 35 -64 50 -79 50
-48 0 31 -23 81 -74 160 -25 39 -46 73 -46 75 0 3 30 5 68 5 91 0 112 -15 112
-79 0 -51 -141 -559 -166 -599 -13 -19 -22 -23 -56 -20 -58 4 -60 25 -4 33 71
11 56 29 -29 37 -46 4 -26 23 25 23 61 0 62 17 1 35 -27 8 -53 18 -56 22 -10
9 61 22 81 14 22 -8 66 4 61 18 -2 6 -34 14 -72 18 -122 12 -121 49 3 87 75
22 114 51 71 51 -13 0 -53 -9 -89 -20 -87 -26 -91 -22 -97 117 -4 91 -2 114
14 143 38 73 69 47 151 -120 64 -132 60 -125 68 -117 12 12 -37 130 -91 222
-71 121 -77 135 -66 135 5 0 32 -30 60 -67z m1637 46 c57 -20 72 -21 499 -17
242 3 454 2 470 -2 81 -19 -43 -25 -475 -25 -490 0 -538 4 -576 46 -16 18 -16
19 3 19 11 0 46 -9 79 -21z m-7851 -10 c-55 -11 -85 -11 -85 1 0 6 27 10 63 9
59 -1 60 -2 22 -10z m508 4 c-7 -2 -21 -2 -30 0 -10 3 -4 5 12 5 17 0 24 -2
18 -5z m5447 -239 c11 -99 20 -217 20 -264 -1 -131 -18 -77 -31 96 -6 82 -16
207 -23 277 -6 70 -9 130 -6 133 8 9 18 -51 40 -242z m-5571 222 c6 -8 32 -17
56 -21 58 -8 58 -25 1 -25 -25 0 -48 -4 -51 -10 -3 -5 -19 -10 -35 -10 -38 0
-69 42 -50 65 16 19 64 19 79 1z m-155 -16 c31 -11 34 -26 7 -35 -19 -6 -158
12 -176 23 -29 18 126 29 169 12z m6374 -34 c121 -61 124 -78 28 -160 -62 -53
-74 -77 -55 -113 15 -28 7 -36 -51 -53 -94 -27 -130 -5 -130 79 0 64 38 216
63 255 24 36 62 34 145 -8z m-6240 -81 c284 -41 396 -65 379 -81 -7 -7 -67 2
-427 67 -151 27 -286 54 -300 59 -24 9 -23 10 5 5 17 -2 171 -25 343 -50z
m5322 34 c7 -11 9 -24 5 -27 -7 -7 -35 25 -35 40 0 16 19 8 30 -13z m2205
-155 c-47 -208 -138 -486 -175 -534 -32 -42 -34 -14 -5 62 71 185 100 276 141
447 24 101 48 189 52 195 18 27 11 -62 -13 -170z m1899 132 c-18 -28 -44 -35
-44 -12 0 17 53 59 58 46 2 -5 -4 -20 -14 -34z m427 -75 c28 -62 48 -115 47
-116 -2 -1 -51 -21 -110 -44 -143 -55 -164 -54 -216 8 l-42 49 78 69 c124 111
176 153 185 150 5 -1 31 -54 58 -116z m-1533 93 c18 -5 20 -9 10 -21 -10 -12
-9 -15 7 -13 48 5 48 6 65 -180 12 -139 29 -234 47 -277 18 -44 16 -63 -4 -63
-14 0 -12 -5 8 -17 32 -19 79 -89 79 -116 0 -17 -5 -18 -62 -12 -76 9 -127 28
-150 58 -17 22 -21 22 -332 27 -173 3 -318 8 -322 13 -4 4 -3 7 2 7 73 1 361
34 398 45 31 9 89 15 155 15 58 0 123 3 144 7 68 11 18 23 -103 24 -160 1
-297 12 -309 24 -5 6 -11 19 -13 29 -3 17 7 21 67 33 39 7 105 17 147 21 42 4
79 10 82 13 4 3 -43 9 -104 12 -60 3 -115 9 -122 13 -24 15 47 24 152 20 58
-3 97 -3 88 0 -10 3 -18 12 -18 19 0 34 -41 40 -315 46 -148 3 -268 6 -265 8
3 2 88 6 190 10 182 7 236 18 227 44 -7 23 -85 35 -237 37 -196 2 -247 18 -65
20 72 2 144 6 160 10 l30 8 -30 2 c-16 2 20 8 80 15 67 7 92 13 64 14 -25 0
-74 4 -108 7 -50 6 -59 9 -50 20 9 11 45 14 145 14 74 0 134 4 134 9 0 10 -66
16 -350 31 -373 21 -281 40 165 35 160 -2 300 -7 313 -11z m-3021 -67 c23 -35
106 -176 184 -313 79 -137 155 -267 171 -288 29 -40 36 -70 18 -81 -13 -8 -87
39 -150 94 -53 46 -50 64 3 20 41 -34 67 -32 67 4 0 26 -20 47 -65 68 -19 9
-32 25 -37 44 -4 17 -12 49 -18 72 -6 23 -26 60 -45 83 -19 23 -35 52 -35 65
0 15 -12 33 -33 49 -22 17 -36 39 -44 69 -10 35 -18 47 -41 55 -24 8 -30 17
-34 49 -5 40 0 73 11 73 4 0 26 -29 48 -63z m73 36 c0 -9 14 -40 30 -70 31
-55 38 -83 19 -83 -5 0 -21 25 -35 55 -29 63 -44 132 -26 121 7 -4 12 -14 12
-23z m-3815 -25 c-4 -24 -12 -47 -17 -53 -11 -10 -3 69 8 87 12 19 15 5 9 -34z
m4116 1 c4 -13 7 -49 8 -79 1 -30 10 -131 21 -225 29 -255 35 -355 21 -355 -6
0 -11 11 -11 24 0 13 -11 40 -25 61 -25 35 -25 38 -8 51 17 13 17 15 -1 29
-17 13 -18 18 -7 41 10 22 9 29 -1 35 -10 6 -10 13 -2 26 8 12 7 24 -2 42 -7
16 -15 98 -19 205 -6 148 -5 178 6 174 7 -2 16 -15 20 -29z m-3984 -3 c74 -25
136 -55 116 -56 -19 0 -186 59 -197 70 -16 16 3 13 81 -14z m3523 -170 c13
-143 22 -176 46 -176 9 0 29 -14 44 -30 15 -17 34 -28 42 -25 9 4 18 -7 26
-29 7 -20 27 -45 43 -57 17 -12 28 -23 25 -26 -3 -3 -87 60 -188 141 -250 199
-238 188 -238 218 0 36 18 45 26 13 6 -26 24 -35 24 -12 0 32 32 117 44 117
18 0 26 -31 26 -110 1 -72 18 -131 39 -138 12 -4 13 19 7 145 -4 82 -3 152 1
157 11 11 20 -39 33 -188z m1200 166 c0 -18 -137 -201 -151 -202 -3 0 -3 19 1
43 7 50 40 98 94 138 41 30 56 35 56 21z m-2151 -41 c32 -17 100 -56 152 -89
52 -32 139 -83 194 -112 118 -63 135 -76 135 -105 0 -37 -22 -47 -72 -36 -23
6 -158 22 -298 36 -301 31 -325 38 -324 100 1 47 51 188 77 216 25 27 68 24
136 -10z m5106 19 c12 -19 -104 -240 -126 -240 -5 0 -9 21 -9 48 1 101 102
246 135 192z m1749 -120 c24 -36 60 -94 80 -131 58 -106 68 -100 -467 -294
-208 -75 -381 -135 -384 -131 -14 13 156 187 506 515 l174 163 24 -29 c12 -15
43 -57 67 -93z m-4575 35 c39 -42 71 -84 71 -95 0 -20 -33 -60 -49 -60 -5 0
-24 -12 -41 -26 l-31 -27 -85 58 c-46 31 -84 61 -84 67 0 21 118 158 136 158
6 0 44 -34 83 -75z m2852 -118 c-62 -59 -96 -87 -99 -78 -3 8 22 68 54 133
l58 118 41 -40 40 -41 -94 -92z m866 81 c12 -48 16 -111 17 -260 1 -180 -1
-199 -18 -215 -18 -18 -18 -17 -12 22 22 136 19 202 -20 510 -7 57 11 25 33
-57z m-10103 74 c2 -4 1 -14 -4 -22 -7 -11 -13 -11 -34 4 -14 9 -26 19 -26 21
0 8 59 5 64 -3z m1741 -88 c302 -100 325 -109 325 -124 0 -25 -292 -63 -572
-75 -139 -5 -148 -5 -148 13 0 10 18 69 39 132 47 139 51 150 60 150 3 0 137
-43 296 -96z m205 23 c289 -89 539 -161 875 -252 153 -42 281 -78 284 -80 12
-13 -49 -2 -196 34 -430 107 -1093 306 -1178 355 -17 10 -23 15 -15 13 8 -2
112 -34 230 -70z m-1810 47 c36 -9 90 -18 120 -21 62 -6 70 -13 70 -63 -1 -50
-37 -132 -106 -235 -33 -49 -82 -130 -109 -180 -26 -49 -58 -104 -71 -122 -36
-48 -90 -277 -114 -483 -11 -96 -23 -184 -26 -195 -14 -48 -37 -87 -60 -97
-30 -14 -31 -34 -3 -41 13 -3 18 -10 14 -17 -4 -7 -18 -9 -31 -6 -20 5 -24 3
-24 -16 0 -28 10 -42 33 -51 23 -9 22 -37 -2 -37 -30 0 -111 38 -112 52 -3 36
6 71 41 154 39 91 71 227 90 383 5 46 7 87 5 91 -3 5 -1 11 4 15 6 3 7 34 4
73 -5 63 -2 75 40 182 52 131 70 205 92 376 16 133 49 254 68 254 7 -1 41 -8
77 -16z m9890 -155 l0 -172 -67 7 c-38 4 -73 12 -80 19 -7 7 -28 57 -48 111
-29 81 -33 102 -23 111 7 7 47 24 88 39 41 15 86 33 100 41 14 8 26 14 28 15
1 0 2 -77 2 -171z m-2964 134 c-19 -36 -45 -70 -46 -59 0 14 43 86 52 86 5 0
2 -12 -6 -27z m1447 -69 c250 -112 323 -150 331 -169 11 -30 -41 -37 -256 -33
-192 3 -209 4 -226 23 -36 37 -80 265 -52 265 6 0 97 -39 203 -86z m-3368 56
c0 -22 -39 -19 -43 3 -3 15 1 18 20 15 12 -2 23 -10 23 -18z m-2397 -6 c12 -8
39 -48 58 -87 20 -40 47 -87 61 -104 l24 -33 -27 0 c-15 0 -51 7 -80 17 -38
11 -51 20 -47 31 7 17 -14 32 -47 32 l-25 1 23 18 c30 26 28 31 -12 31 -51 0
-53 18 -4 40 36 16 39 20 18 20 -54 1 -65 31 -15 43 37 9 50 7 73 -9z m3758
-24 c19 0 106 -139 135 -215 131 -336 124 -674 -19 -960 -107 -216 -297 -400
-515 -500 -132 -61 -287 -101 -287 -76 0 15 10 19 121 52 170 50 284 116 409
235 229 219 350 504 350 823 0 201 -55 381 -169 554 -86 131 -89 136 -59 110
13 -13 29 -23 34 -23z m-6075 -7 c48 -26 70 -44 74 -61 3 -13 3 -27 0 -30 -10
-10 -74 27 -120 69 -75 69 -58 78 46 22z m924 -14 c-8 -22 -19 -47 -24 -57 -9
-14 -10 -15 -11 -1 0 27 31 109 40 104 5 -3 3 -24 -5 -46z m3957 9 c-9 -9 -12
-7 -12 12 0 19 3 21 12 12 9 -9 9 -15 0 -24z m-2714 -47 c12 -32 22 -64 22
-70 0 -22 -35 -6 -48 22 -13 27 -15 28 -33 11 -18 -16 -22 -16 -86 1 -38 10
-72 21 -76 25 -8 7 152 68 183 69 9 0 24 -21 38 -58z m2552 14 c0 -7 -5 -17
-11 -21 -16 -9 -43 21 -36 41 5 13 11 14 27 5 11 -6 20 -17 20 -25z m4248 -4
c39 -49 39 -57 5 -74 -52 -27 -203 -79 -216 -74 -11 4 158 187 173 187 4 0 21
-18 38 -39z m-4552 -15 c12 -19 14 -38 9 -81 -4 -30 -11 -57 -15 -60 -6 -4
-32 99 -32 130 -1 43 14 47 38 11z m4204 -11 c0 -37 -22 -57 -42 -37 -7 7 -4
20 11 41 13 17 24 31 27 31 2 0 4 -16 4 -35z m761 -70 c20 -55 35 -102 33
-105 -7 -13 -163 9 -200 28 -50 26 -107 79 -102 95 7 19 169 87 203 84 28 -2
32 -7 66 -102z m-4596 65 c0 -22 -39 -19 -43 3 -3 15 1 18 20 15 12 -2 23 -10
23 -18z m848 -38 c-16 -20 -58 -75 -93 -122 -83 -112 -106 -137 -159 -171 -55
-35 -71 -36 -71 -5 0 30 7 35 60 44 49 8 53 25 9 32 -18 3 -34 11 -37 18 -3 9
15 12 67 12 84 0 94 16 16 25 -30 4 -57 11 -60 15 -3 5 23 11 58 15 34 3 70 9
79 11 9 3 47 43 84 90 36 47 69 83 72 80 3 -3 -8 -23 -25 -44z m5057 -64 c27
-57 60 -141 74 -188 123 -432 -47 -938 -414 -1233 -136 -109 -316 -202 -415
-215 -59 -7 -35 9 87 57 311 124 548 361 669 671 60 153 74 237 73 445 -1 161
-3 190 -27 275 -14 53 -42 134 -62 180 -20 47 -39 91 -42 98 -3 6 -2 12 1 12
4 0 29 -46 56 -102z m-4965 53 c-15 -14 -47 -17 -52 -5 -2 7 4 19 13 29 15 15
18 15 33 1 9 -10 12 -19 6 -25z m-1017 7 c16 -16 15 -38 -2 -38 -13 0 -26 20
-26 41 0 13 14 11 28 -3z m1376 -2 c-12 -31 -339 -241 -605 -389 -72 -40 -89
-45 -89 -23 0 21 28 46 45 40 13 -6 105 30 105 41 0 3 -18 12 -41 21 -55 23
-39 35 63 48 46 6 83 16 83 21 0 6 -28 11 -63 13 -44 2 -62 7 -59 15 3 8 36
12 108 12 117 1 128 5 277 101 45 30 100 63 122 74 22 11 40 25 40 30 0 6 4
10 10 10 5 0 7 -6 4 -14z m-1730 -18 c3 -13 6 -32 6 -43 -1 -19 -2 -19 -20 4
-11 13 -20 32 -20 42 0 27 26 24 34 -3z m1186 13 c0 -12 -59 -35 -68 -27 -4 4
2 14 12 22 22 16 56 19 56 5z m-4659 -18 c-5 -10 -16 -27 -25 -38 -21 -27 -21
-1 0 30 19 29 40 35 25 8z m3899 -24 c0 -17 -4 -28 -10 -24 -5 3 -10 17 -10
31 0 13 5 24 10 24 6 0 10 -14 10 -31z m1930 21 c10 -7 -18 -10 -87 -10 -62 0
-103 4 -103 10 0 13 170 13 190 0z m2351 -9 c13 -11 22 -22 19 -25 -4 -3 -51
-8 -105 -12 -114 -7 -118 2 -15 35 81 25 73 25 101 2z m-7181 -17 c79 -18 241
-73 254 -85 17 -16 -18 -10 -209 31 -102 22 -194 40 -205 40 -22 0 -27 15 -7
23 25 11 104 6 167 -9z m6780 6 c10 -5 23 -23 28 -40 l11 -30 215 0 c210 0
260 -7 201 -30 -35 -13 -316 -13 -391 1 -32 6 -62 16 -66 22 -4 7 -27 17 -50
22 -49 12 -56 33 -18 52 30 15 46 16 70 3z m-4170 -15 c9 -8 29 -16 43 -17 30
-3 35 -13 11 -22 -45 -17 -100 6 -88 37 8 21 13 21 34 2z m370 -4 c14 -27 13
-41 -4 -41 -20 0 -39 27 -32 45 8 21 23 19 36 -4z m2333 12 c-13 -2 -35 -2
-50 0 -16 2 -5 4 22 4 28 0 40 -2 28 -4z m-556 -20 c-20 -2 -52 -2 -70 0 -17
2 0 4 38 4 39 0 53 -2 32 -4z m-6505 -56 c9 -28 15 -54 13 -55 -7 -7 -35 45
-41 76 -10 51 9 37 28 -21z m527 5 c-49 -4 -69 2 -69 21 0 12 9 12 55 -2 l56
-16 -42 -3z m1174 -4 c32 -6 60 -15 64 -21 4 -6 -2 -8 -15 -5 -36 10 -35 -10
0 -32 49 -30 89 -25 56 8 -8 8 -4 14 17 22 40 15 47 2 30 -54 -28 -92 -18
-179 36 -320 17 -43 28 -88 25 -100 -3 -12 -53 -77 -112 -146 -109 -128 -185
-233 -222 -307 -25 -49 -56 -73 -93 -73 -30 0 -51 -21 -72 -72 -9 -20 -27 -44
-41 -53 -16 -11 -26 -27 -26 -40 0 -35 -24 -53 -83 -60 -139 -18 -138 6 5 148
144 143 268 285 322 369 62 96 81 163 81 283 0 97 -1 103 -48 215 -66 156 -97
242 -90 253 5 9 66 4 166 -15z m4249 -5 c26 -23 22 -40 -12 -58 -16 -8 -29
-21 -27 -28 4 -20 -56 -19 -90 3 -18 11 -33 24 -33 30 0 16 92 70 119 70 14 0
33 -7 43 -17z m623 6 c37 -11 38 -12 20 -26 -17 -12 -43 -14 -150 -8 -128 6
-154 13 -141 34 9 15 218 14 271 0z m-1847 -21 c18 -18 15 -28 -8 -28 -11 0
-20 2 -20 4 0 2 -3 11 -6 20 -7 19 16 22 34 4z m-4743 -68 c20 -42 36 -62 52
-66 40 -11 31 -61 -23 -124 -55 -65 -64 -86 -64 -153 0 -59 41 -155 108 -255
57 -83 88 -181 62 -197 -19 -12 0 -26 20 -15 29 15 30 14 30 -45 0 -70 -14
-72 -76 -7 -32 32 -65 86 -106 172 -33 69 -99 194 -146 278 -68 122 -83 158
-79 181 8 37 116 221 134 228 21 8 38 -15 58 -76 12 -38 20 -50 26 -39 9 16
-5 88 -26 129 -16 30 -20 63 -7 55 4 -2 21 -32 37 -66z m5550 60 c-3 -5 -26
-10 -51 -10 -28 0 -43 4 -39 10 3 6 26 10 51 10 28 0 43 -4 39 -10z m2720 -12
c7 -7 -6 -9 -45 -4 -30 3 -73 6 -95 7 -32 0 -36 2 -20 10 25 11 147 2 160 -13z
m2293 9 c15 -18 62 -213 62 -257 0 -47 -23 -77 -68 -90 -48 -13 -349 -13 -616
0 -213 11 -278 8 -257 -13 6 -6 55 -13 109 -14 378 -13 809 -36 824 -44 14 -8
18 -18 14 -37 -3 -15 -8 -49 -11 -77 -17 -134 -47 -250 -69 -258 -7 -3 -64 15
-127 40 -63 25 -234 91 -380 148 -317 123 -373 149 -388 182 -30 65 -6 101 96
143 160 67 759 289 779 290 12 0 26 -6 32 -13z m-6070 -21 c18 -18 9 -46 -15
-46 -25 0 -95 42 -101 59 -4 11 5 13 49 8 29 -4 59 -13 67 -21z m4826 -2 c9
-8 16 -17 16 -20 0 -10 -27 -2 -50 16 -24 19 -25 20 -3 20 12 0 29 -7 37 -16z
m147 6 c15 -9 19 -22 19 -62 l0 -51 -22 20 c-13 11 -32 24 -44 27 -28 9 -68
52 -59 65 8 14 80 14 106 1z m-7500 -47 c18 -27 59 -76 91 -111 32 -34 58 -69
58 -77 0 -7 -16 -69 -35 -136 -49 -171 -85 -354 -85 -436 0 -79 -9 -93 -61
-93 -33 0 -37 -3 -43 -32 -9 -44 -52 -108 -74 -108 -10 -1 -6 -6 13 -15 17 -7
26 -14 20 -15 -5 0 -23 -12 -40 -25 l-30 -25 34 6 c45 9 34 -10 -15 -26 -34
-12 -45 -11 -127 11 l-39 10 74 77 c104 110 148 196 215 427 49 169 50 192 13
300 -49 139 -54 315 -9 315 4 0 23 -21 40 -47z m227 21 c68 -6 74 -9 107 -45
41 -45 96 -152 119 -228 21 -72 20 -127 -2 -159 -11 -15 -43 -70 -72 -122 -29
-52 -82 -137 -118 -189 -70 -101 -92 -157 -92 -233 0 -43 -3 -50 -26 -58 -41
-16 -194 -13 -200 4 -10 26 26 77 67 95 44 18 59 51 59 131 1 127 43 348 96
502 19 54 34 107 34 117 0 12 -26 38 -69 70 -75 56 -106 94 -97 118 5 13 17
14 64 9 31 -3 90 -9 130 -12z m2204 -30 c161 -72 382 -188 368 -192 -12 -4
-467 216 -476 231 -9 12 3 8 108 -39z m-1886 -25 c75 -46 174 -186 174 -245 0
-12 -15 -41 -34 -65 -98 -129 -195 -323 -220 -441 -8 -37 -70 -78 -118 -78
-35 0 -38 -2 -38 -29 0 -30 21 -54 28 -33 2 7 8 10 13 6 12 -7 11 -64 -1 -64
-6 0 -14 -10 -19 -22 -6 -17 -4 -25 8 -29 10 -4 -5 -11 -39 -18 -30 -6 -65
-14 -78 -18 -22 -5 -22 -3 -17 38 28 208 46 252 120 301 102 67 154 187 162
370 7 153 -13 225 -86 313 -28 33 -51 63 -51 66 0 12 164 -32 196 -52z m1742
42 c28 -24 28 -33 1 -29 -26 4 -60 48 -38 48 8 -1 24 -9 37 -19z m1532 4 c0
-10 -10 -15 -32 -15 l-33 1 25 14 c32 18 40 18 40 0z m805 6 c3 -6 -11 -13
-30 -17 -53 -10 -257 0 -280 14 -16 9 14 11 142 12 92 0 164 -4 168 -9z m1663
-20 c-3 -11 -14 -16 -38 -14 -65 3 -142 15 -136 21 8 7 136 19 159 13 10 -2
17 -11 15 -20z m347 20 c10 -17 -14 -22 -114 -22 -104 -1 -151 10 -96 22 47
10 203 10 210 0z m682 -30 c15 -9 13 -10 -12 -11 -31 0 -75 24 -75 41 0 9 50
-8 87 -30z m-6487 -3 c10 -6 2 -7 -25 -3 -22 4 -44 11 -50 17 -12 12 52 1 75
-14z m1360 15 c0 -5 3 -18 6 -30 5 -18 2 -23 -13 -23 -11 0 -28 6 -38 14 -16
12 -17 16 -6 30 14 16 51 22 51 9z m3748 0 c-10 -2 -26 -2 -35 0 -10 3 -2 5
17 5 19 0 27 -2 18 -5z m1247 -4 c4 -6 5 -12 3 -15 -10 -10 -248 -36 -273 -30
-45 11 -17 26 53 27 37 0 92 7 122 14 73 16 88 17 95 4z m-3990 -29 c10 -16
-25 -120 -40 -120 -23 0 -26 16 -5 35 28 26 25 44 -10 56 -32 12 -38 24 -17
32 21 9 66 7 72 -3z m-2162 -11 c87 -13 119 -35 37 -25 -30 4 -80 13 -110 20
-71 18 -28 20 73 5z m3549 -6 c22 -3 35 -10 31 -16 -10 -16 -353 9 -353 26 0
10 244 3 322 -10z m2207 8 c29 -19 -19 -26 -196 -29 -116 -3 -188 0 -200 7
-13 8 11 11 97 11 63 1 133 5 155 9 54 12 127 13 144 2z m-4775 -9 c2 -4 -2
-39 -10 -77 -16 -78 -41 -111 -90 -121 -73 -14 -97 75 -37 138 46 49 123 82
137 60z m4019 1 c-13 -2 -35 -2 -50 0 -16 2 -5 4 22 4 28 0 40 -2 28 -4z m226
-2 c36 -23 -78 -23 -119 0 -9 5 7 8 45 9 33 0 66 -4 74 -9z m1126 -6 c0 -12
-40 -19 -61 -11 -9 3 -12 11 -9 16 8 14 70 9 70 -5z m-6630 -14 c44 -10 97
-22 118 -25 63 -12 86 -27 118 -80 17 -28 47 -65 66 -83 42 -39 42 -39 -29
-268 -62 -201 -74 -260 -88 -415 -13 -150 -22 -170 -83 -170 -23 0 -49 -5 -57
-10 -13 -9 -11 -13 9 -29 22 -17 23 -22 17 -83 -10 -92 -23 -114 -66 -110
l-35 4 24 -26 24 -26 -34 0 c-22 0 -41 -7 -52 -20 -14 -17 -29 -20 -91 -20
-76 0 -106 6 -106 21 0 4 28 31 62 59 68 54 91 60 174 39 33 -9 48 -9 56 -1
14 14 -47 42 -92 42 -32 0 -42 23 -15 33 22 9 74 107 81 156 4 25 18 70 31
100 32 72 89 296 102 399 20 158 -12 241 -159 410 -83 95 -98 122 -67 122 7 0
48 -9 92 -19z m1760 -42 c82 -40 79 -41 -38 -9 -68 18 -97 34 -97 52 0 15 46
1 135 -43z m1325 30 c90 -9 112 -8 153 6 42 14 50 14 69 1 12 -9 31 -13 43
-10 26 6 43 -11 51 -54 11 -53 -6 -57 -413 -107 -205 -25 -374 -45 -377 -45
-4 0 -6 9 -6 19 0 21 73 90 120 113 22 11 43 13 78 7 66 -11 570 -11 576 0 10
16 -28 22 -234 37 -250 17 -300 25 -269 45 8 5 34 7 59 4 25 -3 92 -10 150
-16z m-1687 -24 c-1 -15 -16 -48 -33 -74 l-30 -46 6 45 c9 62 31 113 46 107 7
-2 12 -17 11 -32z m4722 20 c30 -13 30 -13 5 -15 -61 -5 -102 6 -79 21 19 12
39 10 74 -6z m340 4 c-22 -4 -59 -8 -82 -8 -53 -1 -60 -12 -22 -35 17 -10 28
-20 26 -22 -6 -7 -137 59 -137 68 0 4 57 7 128 7 95 -1 117 -3 87 -10z m-5962
-16 c-7 -2 -21 -2 -30 0 -10 3 -4 5 12 5 17 0 24 -2 18 -5z m564 -8 c8 -23
-26 -55 -58 -55 -30 0 -79 19 -79 30 0 7 90 36 118 39 7 0 15 -6 19 -14z m989
-10 c4 -14 4 -29 0 -32 -11 -11 -39 25 -33 41 9 24 26 19 33 -9z m1776 7 c8
-8 7 -13 -5 -18 -21 -8 -303 -1 -312 8 -4 4 -4 12 0 19 10 15 301 7 317 -9z
m1016 11 c-10 -2 -28 -2 -40 0 -13 2 -5 4 17 4 22 1 32 -1 23 -4z m1922 -13
c0 -5 -15 -10 -32 -10 -25 0 -29 3 -18 10 20 13 50 13 50 0z m-5255 -91 c0
-58 -5 -92 -14 -103 -17 -20 -99 -22 -126 -3 -17 13 -17 16 7 68 33 73 85 131
112 127 20 -3 21 -9 21 -89z m4005 82 c0 -13 -196 -25 -259 -16 -28 4 -48 11
-45 16 7 12 304 12 304 0z m188 2 c-10 -2 -28 -2 -40 0 -13 2 -5 4 17 4 22 1
32 -1 23 -4z m960 -17 c3 -13 -1 -17 -14 -14 -11 2 -20 11 -22 22 -3 13 1 17
14 14 11 -2 20 -11 22 -22z m-5043 -79 c36 -112 34 -121 -33 -125 -61 -4 -61
-5 -37 110 28 134 31 135 70 15z m905 79 c0 -10 -33 -36 -46 -36 -20 0 -17 28
4 33 24 7 42 8 42 3z m-1660 -36 c88 -27 199 -84 187 -96 -3 -3 -27 6 -54 19
-26 14 -81 36 -121 51 -77 27 -134 55 -117 56 6 0 53 -13 105 -30z m872 -12
c43 -33 148 -147 148 -160 0 -13 -142 -9 -170 5 -19 10 -29 27 -42 77 -9 36
-16 78 -17 93 -1 25 2 28 22 21 12 -4 39 -20 59 -36z m4856 9 c2 -10 -3 -17
-12 -17 -18 0 -29 16 -21 31 9 14 29 6 33 -14z m-570 -19 c24 -11 60 -37 80
-57 l37 -36 -50 -3 c-116 -8 -185 24 -185 86 0 16 3 32 7 36 11 11 60 -1 111
-26z m274 6 c55 -13 212 -78 232 -96 6 -4 -71 -8 -170 -8 l-180 0 -54 55 c-45
46 -52 57 -40 65 18 12 134 4 212 -16z m530 10 c16 -10 -17 -22 -65 -23 -73
-2 -127 -51 -127 -116 0 -92 115 -149 190 -93 32 23 51 18 34 -10 -19 -29 -56
-43 -107 -39 -147 12 -198 194 -77 275 29 20 44 23 87 19 29 -3 58 -9 65 -13z
m-4637 -14 c10 -11 16 -23 12 -26 -9 -9 -47 16 -47 31 0 21 14 19 35 -5z
m3683 -13 c7 -15 14 -40 15 -55 2 -25 -1 -27 -36 -30 -47 -4 -67 11 -67 51 0
64 62 88 88 34z m-8486 -23 c-2 -21 -4 -99 -5 -172 -1 -72 -5 -132 -9 -132
-11 0 -70 162 -76 207 -5 44 7 72 51 121 29 31 43 22 39 -24z m8336 34 c18
-18 15 -85 -4 -92 -24 -9 -72 -7 -79 3 -6 11 13 58 33 84 18 20 33 22 50 5z
m-3782 -24 c49 -14 119 -41 157 -61 79 -42 78 -43 -49 -63 -70 -10 -85 -10
-111 3 -25 13 -92 90 -117 135 -11 19 21 15 120 -14z m487 13 c33 -14 64 -44
54 -53 -2 -3 -16 6 -30 20 -21 20 -36 26 -72 26 -87 0 -125 -39 -125 -128 0
-60 25 -102 70 -117 18 -6 36 -17 38 -23 6 -18 -78 14 -105 40 -30 28 -47 87
-39 131 17 92 118 142 209 104z m2870 -111 c-167 -161 -254 -236 -273 -236
-44 1 -180 183 -180 241 0 27 38 48 138 75 120 33 185 41 325 43 l119 1 -129
-124z m195 -28 l-3 -143 -68 -140 c-75 -153 -90 -175 -121 -175 -23 0 -155 87
-225 148 l-45 39 44 39 c23 21 124 114 224 206 100 92 185 167 189 167 5 1 7
-63 5 -141z m-607 111 c-51 -23 -74 -21 -79 4 -3 15 5 17 60 16 l63 0 -44 -20z
m2014 -9 c9 -16 12 -30 9 -30 -13 0 -44 33 -44 47 0 23 19 14 35 -17z m-2097
-67 c48 -96 77 -171 69 -180 -7 -7 -103 188 -113 230 -11 47 4 30 44 -50z
m2013 67 c33 -18 21 -25 -41 -22 -57 4 -59 3 -66 -24 -9 -34 3 -54 46 -76 56
-29 59 -38 12 -38 -32 0 -49 6 -67 25 -70 69 28 182 116 135z m-4403 -12 c12
-12 17 -48 7 -48 -3 0 -14 5 -24 11 -24 16 -68 4 -82 -22 -14 -27 12 -66 62
-91 33 -18 33 -18 7 -18 -97 0 -128 82 -58 151 30 30 68 37 88 17z m1005 -40
c-17 -223 -30 -298 -52 -298 -4 0 -41 11 -82 25 -127 44 -393 123 -521 155
-67 17 -138 38 -157 46 -30 13 -33 17 -19 25 9 5 142 27 295 48 344 49 328 47
444 49 l96 2 -4 -52z m-6556 -148 c18 -30 37 -84 43 -120 17 -92 15 -234 -4
-310 -8 -36 -13 -74 -10 -85 7 -29 -27 -77 -67 -97 -39 -19 -178 -38 -185 -26
-3 5 6 22 20 38 31 38 34 53 46 278 10 185 20 241 67 387 34 107 35 107 48 44
6 -29 25 -79 42 -109z m9937 144 c8 -21 -11 -44 -34 -44 -17 0 -17 2 -4 30 17
34 29 38 38 14z m-5680 -50 c84 -35 113 -54 82 -54 -18 0 -186 76 -186 84 0
11 19 6 104 -30z m1390 21 c8 -21 -12 -67 -27 -63 -17 6 -21 46 -7 64 16 18
26 18 34 -1z m4381 -5 c0 -8 -10 -16 -22 -18 -22 -3 -32 16 -16 32 12 11 38 2
38 -14z m-1163 -105 c-6 -168 -14 -226 -35 -239 -15 -9 -21 -7 -33 9 -33 45
-65 210 -53 279 8 49 32 68 84 64 l40 -3 -3 -110z m229 15 c43 -108 47 -135
20 -149 -31 -17 -174 -61 -199 -61 l-22 0 6 143 c3 78 7 148 10 155 3 9 23 12
75 10 l71 -3 39 -95z m261 42 c29 -31 48 -59 46 -70 -4 -22 -151 -83 -193 -80
-20 2 -33 11 -41 28 -36 74 -74 158 -74 163 0 12 38 16 124 13 l88 -2 50 -52z
m307 52 c18 -4 30 -11 28 -17 -4 -14 -183 -87 -212 -87 -12 0 -43 23 -75 55
l-54 55 141 0 c77 0 155 -3 172 -6z m-5043 -62 c13 -8 10 -11 -16 -21 -68 -23
-130 -10 -130 27 0 12 12 14 65 9 36 -4 73 -10 81 -15z m117 -9 c-7 -2 -21 -2
-30 0 -10 3 -4 5 12 5 17 0 24 -2 18 -5z m577 -3 c0 -12 -74 -67 -103 -76 -16
-5 -29 2 -54 30 -19 20 -31 41 -28 46 8 13 185 13 185 0z m562 -44 c247 -64
611 -174 620 -189 13 -21 9 -33 -51 -154 -67 -132 -88 -158 -124 -149 -41 10
-628 489 -641 523 -8 20 8 17 196 -31z m3858 27 c0 -9 -32 -48 -71 -87 l-71
-71 -39 44 c-22 24 -38 49 -36 55 5 15 156 75 190 76 19 0 27 -5 27 -17z
m-4618 -35 c21 -23 38 -44 38 -47 0 -9 -207 -123 -226 -125 -29 -2 -71 184
-47 207 3 4 49 7 101 7 l95 0 39 -42z m1871 25 c-7 -2 -21 -2 -30 0 -10 3 -4
5 12 5 17 0 24 -2 18 -5z m-2144 -81 c22 -81 26 -119 15 -146 -4 -9 -38 -35
-78 -58 -39 -23 -90 -54 -113 -70 -37 -25 -43 -27 -43 -11 0 49 40 327 49 336
12 12 66 25 112 26 l37 1 21 -78z m737 52 c-11 -8 -27 -14 -35 -14 -9 0 -3 8
14 19 34 21 50 17 21 -5z m4640 -20 c134 -48 579 -225 677 -268 31 -14 57 -29
57 -34 0 -16 -107 -193 -152 -251 -57 -72 -79 -77 -135 -29 -64 55 -525 508
-571 560 -41 49 -46 68 -16 68 8 0 71 -21 140 -46z m-5592 18 c5 -9 -18 -201
-35 -282 l-12 -55 -28 60 c-16 33 -29 67 -29 76 0 9 -9 36 -20 60 -22 50 -26
112 -7 127 7 6 30 12 52 15 22 2 48 4 57 5 9 1 19 -2 22 -6z m726 -28 c0 -28
-49 -84 -74 -84 -19 0 -58 40 -53 55 5 16 79 55 105 55 17 0 22 -6 22 -26z
m338 -1 c15 -10 82 -64 150 -120 67 -57 180 -146 250 -199 233 -178 236 -185
143 -275 -67 -66 -177 -149 -196 -149 -7 0 -50 71 -95 158 -45 86 -131 250
-191 363 -126 237 -135 269 -61 222z m4072 -2 c0 -13 -80 -110 -100 -121 -23
-12 -40 -13 -40 -1 0 11 119 131 131 131 5 0 9 -4 9 -9z m-5354 -126 c9 -38
34 -114 56 -168 22 -54 38 -100 36 -103 -14 -13 -233 74 -249 99 -10 14 6 55
69 187 62 129 52 131 88 -15z m5072 117 c24 -16 62 -76 62 -100 0 -33 -194
-232 -226 -232 -18 0 -28 13 -52 73 -41 100 -67 176 -61 181 4 4 250 85 259
86 3 0 11 -4 18 -8z m565 -14 c43 -29 637 -620 637 -633 0 -27 -226 -188 -300
-213 -43 -16 -62 6 -105 123 -20 55 -84 211 -141 348 -167 394 -177 435 -91
375z m-4613 -27 c0 -41 -55 -117 -128 -176 -60 -48 -162 -112 -162 -101 0 3
27 37 60 76 58 66 90 85 105 60 13 -21 25 2 19 35 -10 52 43 135 86 135 15 0
20 -7 20 -29z m4450 -212 c-25 -577 -31 -691 -37 -706 -8 -20 -64 -15 -228 22
-142 32 -165 44 -165 87 0 28 214 496 292 638 35 63 138 204 144 197 3 -2 0
-109 -6 -238z m189 -68 c108 -273 193 -501 206 -554 6 -23 3 -28 -21 -38 -62
-24 -242 -59 -303 -59 l-64 0 7 228 c9 310 25 638 32 691 6 40 8 42 20 27 7
-10 62 -143 123 -295z m-1301 -48 c12 -24 18 -44 12 -48 -12 -7 -114 17 -205
48 -55 19 -70 28 -68 43 1 11 32 82 69 159 l67 140 51 -150 c29 -83 62 -169
74 -192z m-3556 290 c21 -20 38 -41 38 -46 0 -12 -141 -177 -185 -215 -19 -18
-45 -32 -55 -32 -25 0 -55 48 -70 112 -19 78 -13 88 107 155 60 34 112 62 118
62 5 1 26 -16 47 -36z m415 -5 c65 -73 343 -599 343 -649 0 -28 -6 -33 -65
-60 -71 -32 -224 -72 -257 -67 -12 2 -26 11 -32 20 -15 24 21 59 71 68 l38 8
-35 1 c-44 2 -56 9 -69 44 -15 38 -61 454 -61 545 0 107 23 138 67 90z m-127
-12 c0 -20 -46 -73 -56 -64 -6 7 41 78 52 78 2 0 4 -6 4 -14z m4226 -35 c-36
-68 -217 -205 -363 -273 -94 -44 -122 -44 -48 -1 164 97 237 147 318 220 51
45 95 82 100 82 4 1 1 -12 -7 -28z m-513 -109 c21 -68 37 -129 34 -136 -3 -7
-43 -22 -89 -34 -235 -58 -268 -43 -268 126 l0 90 98 40 c70 30 109 40 142 39
l44 -2 39 -123z m387 79 c0 -17 -110 -108 -163 -135 l-52 -27 59 56 c91 87
156 132 156 106z m-4061 -203 c12 -112 23 -237 24 -278 1 -52 6 -78 16 -86 13
-10 12 -13 -6 -24 -19 -13 -20 -13 -2 -31 24 -24 24 -44 -1 -69 -40 -40 -273
-18 -312 30 -38 46 29 99 130 101 53 1 43 5 -42 14 l-59 7 6 47 c7 55 73 257
115 352 27 61 84 139 101 139 4 0 18 -91 30 -202z m-629 76 c26 -100 25 -104
-59 -128 -80 -23 -163 -21 -186 5 -19 19 -19 21 0 55 24 45 173 153 211 154 6
0 21 -39 34 -86z m432 37 c-46 -43 -156 -111 -226 -141 -74 -31 -53 -8 37 43
45 25 111 67 147 92 79 55 100 58 42 6z m3508 -1 c0 -33 -11 -38 -30 -15 -15
18 -6 45 15 45 10 0 15 -10 15 -30z m709 -247 c-141 -309 -161 -347 -180 -351
-22 -4 -214 126 -268 182 l-45 46 24 25 c39 41 113 84 222 129 117 48 223 107
294 165 27 22 52 40 55 40 4 1 -42 -106 -102 -236z m-4236 74 c-36 -133 -92
-315 -108 -353 -10 -25 -20 -34 -38 -34 -32 0 -266 115 -273 135 -11 28 6 63
57 119 86 95 344 250 381 229 3 -2 -5 -45 -19 -96z m-4504 16 c7 -16 8 -30 3
-35 -6 -6 -14 3 -21 23 -13 38 -13 39 -3 39 5 0 14 -12 21 -27z m4186 -12
c-30 -30 -304 -67 -319 -43 -7 12 23 17 179 32 60 6 111 13 114 16 2 2 11 4
20 4 9 0 11 -3 6 -9z m4205 -20 c0 -28 -239 -76 -262 -53 -22 22 5 31 116 41
60 6 111 13 114 16 9 8 32 6 32 -4z m-405 -41 c-3 -5 -13 -10 -21 -10 -8 0
-14 5 -14 10 0 6 9 10 21 10 11 0 17 -4 14 -10z m-3873 -37 c-11 -16 -36 -45
-56 -66 -29 -32 -38 -37 -54 -28 -30 16 -84 83 -75 92 8 8 114 26 171 28 l33
1 -19 -27z m4168 -12 c0 -14 -61 -62 -74 -58 -6 2 -12 13 -14 24 -2 17 5 23
35 31 51 13 53 13 53 3z m-6596 -21 c47 -17 28 -30 -43 -30 -77 0 -131 8 -131
21 0 18 131 26 174 9z m-2354 -20 c0 -5 -9 -15 -20 -22 -11 -7 -20 -19 -20
-26 0 -19 -44 -32 -111 -32 -51 0 -60 3 -57 16 6 31 53 55 124 63 38 5 72 9
77 10 4 0 7 -3 7 -9z m2585 -30 c-9 -10 -14 -24 -10 -30 9 -15 -29 -55 -66
-70 -56 -24 -99 8 -85 64 7 27 94 71 122 62 11 -3 26 -1 34 4 22 14 26 -7 5
-30z m-2830 -19 c-8 -13 -88 -24 -114 -16 -39 12 -11 25 55 25 38 0 63 -4 59
-9z m-273 -46 c3 -3 3 -16 1 -30 -6 -30 -65 -55 -128 -55 -54 0 -64 14 -35 45
28 30 144 58 162 40z m5259 -71 c12 -15 12 -16 -2 -8 -23 13 -89 72 -89 80 0
7 73 -50 91 -72z m80 -44 c13 -10 19 -19 13 -20 -7 0 -22 9 -35 20 -13 10 -19
19 -13 20 7 0 22 -9 35 -20z m663 -120 c27 -26 -241 -23 -305 3 -28 11 -12 12
132 9 90 -2 168 -8 173 -12z m3852 -47 c-8 -8 -56 6 -56 17 0 5 13 5 31 -2 16
-6 28 -13 25 -15z"/>
<path d="M1778 4702 c15 -22 36 -58 46 -80 18 -41 36 -55 36 -29 -1 23 -39 97
-64 122 -38 38 -50 30 -18 -13z"/>
<path d="M1882 4606 c15 -132 144 -263 293 -296 26 -6 50 -8 56 -5 5 3 -16 30
-46 60 -30 29 -55 60 -55 69 0 8 -4 17 -8 20 -4 2 -6 -12 -4 -32 l4 -37 -26
30 c-14 17 -28 37 -31 47 -3 9 -16 19 -29 22 -14 3 -32 23 -46 51 -27 53 -40
57 -40 13 l-1 -33 -13 25 c-8 14 -20 44 -27 68 -16 55 -33 54 -27 -2z m171
-178 c19 -23 22 -38 6 -38 -14 0 -79 50 -79 61 0 16 54 -2 73 -23z"/>
<path d="M9605 4560 c-12 -4 -27 -15 -34 -24 -13 -15 -10 -16 30 -10 24 4 48
10 53 14 13 13 -27 29 -49 20z"/>
<path d="M9603 4498 c-6 -7 -22 -36 -37 -65 -14 -28 -57 -107 -96 -174 -38
-67 -70 -126 -70 -131 0 -4 6 -8 14 -8 14 0 175 284 197 348 12 36 8 50 -8 30z"/>
<path d="M9724 4324 c-36 -18 -80 -61 -72 -70 13 -13 118 56 118 78 0 11 -11
10 -46 -8z"/>
<path d="M9670 4163 c-30 -20 -40 -34 -34 -45 6 -9 79 28 96 49 16 20 -32 17
-62 -4z"/>
<path d="M1722 3714 c-12 -8 -22 -23 -22 -32 0 -13 6 -11 27 10 31 31 28 45
-5 22z"/>
<path d="M8233 3515 c-6 -11 -27 -87 -47 -170 -19 -82 -38 -160 -42 -172 -8
-29 11 -31 26 -3 6 12 20 67 31 123 10 56 26 123 35 149 8 26 14 58 12 70 -3
22 -4 23 -15 3z"/>
<path d="M8527 3413 c-44 -143 -87 -335 -86 -378 l1 -40 14 33 c12 26 40 144
109 450 3 12 2 22 -3 22 -5 0 -21 -39 -35 -87z"/>
<path d="M2170 3274 c0 -12 7 -27 15 -34 20 -17 21 9 0 36 -14 19 -14 19 -15
-2z"/>
<path d="M2124 3246 c-4 -10 0 -33 10 -52 29 -63 13 -91 -21 -34 -17 30 -33
39 -33 20 0 -5 10 -30 22 -55 26 -52 18 -68 -17 -35 -31 29 -31 22 0 -37 13
-27 27 -56 30 -66 7 -24 25 -12 25 17 0 13 7 29 15 36 8 7 15 24 15 38 0 14 9
45 21 69 22 45 18 73 -6 53 -17 -14 -35 -5 -35 18 0 9 -4 24 -10 32 -8 12 -10
12 -16 -4z"/>
<path d="M2371 2888 c15 -29 50 -68 61 -68 5 0 3 10 -3 23 -15 28 -50 67 -61
67 -5 0 -3 -10 3 -22z"/>
<path d="M2350 2829 c0 -9 9 -27 20 -40 15 -19 19 -20 20 -8 0 9 -9 27 -20 40
-15 19 -19 20 -20 8z"/>
<path d="M9621 3042 c-22 -15 4 -24 70 -24 60 0 79 6 65 19 -11 11 -120 15
-135 5z"/>
<path d="M9602 2994 c-28 -12 3 -24 61 -24 40 0 57 4 47 9 -20 12 -92 21 -108
15z"/>
<path d="M9668 2923 c17 -2 47 -2 65 0 17 2 3 4 -33 4 -36 0 -50 -2 -32 -4z"/>
<path d="M9655 2735 l-70 -12 92 -2 c86 -1 124 9 87 23 -19 7 -20 7 -109 -9z"/>
<path d="M9493 2623 c9 -2 23 -2 30 0 6 3 -1 5 -18 5 -16 0 -22 -2 -12 -5z"/>
<path d="M1751 2898 c-1 -27 4 -48 9 -48 12 0 12 34 0 70 -7 20 -8 16 -9 -22z"/>
<path d="M1704 2869 c7 -35 22 -57 31 -47 10 10 -10 71 -24 76 -11 4 -12 -3
-7 -29z"/>
<path d="M3822 2618 c5 -15 68 -24 68 -10 0 12 -24 22 -52 22 -11 0 -18 -5
-16 -12z"/>
<path d="M3842 2568 c5 -15 48 -24 48 -10 0 10 -23 22 -42 22 -5 0 -8 -6 -6
-12z"/>
<path d="M3900 2266 c0 -38 3 -46 19 -46 34 0 33 50 -3 79 -14 12 -16 9 -16
-33z"/>
<path d="M3910 2185 c-7 -9 -10 -18 -7 -22 8 -7 37 15 37 28 0 14 -16 11 -30
-6z"/>
<path d="M4060 2451 c0 -15 51 -51 71 -51 29 0 23 16 -15 39 -36 23 -56 27
-56 12z"/>
<path d="M3864 1665 c24 -18 49 -20 44 -2 -3 6 -18 13 -34 15 -28 2 -28 2 -10
-13z"/>
<path d="M4387 1803 c-13 -12 -7 -33 8 -33 8 0 15 9 15 20 0 20 -11 26 -23 13z"/>
<path d="M5000 2345 c7 -8 14 -36 15 -61 4 -57 10 -63 35 -36 12 12 25 22 30
22 21 0 8 29 -25 59 -38 33 -79 45 -55 16z"/>
<path d="M9186 5339 c-3 -8 -10 -46 -16 -86 -7 -41 -18 -77 -27 -85 -9 -7 -43
-18 -77 -25 -146 -30 -146 -110 -1 -112 22 -1 51 -8 64 -17 21 -15 23 -22 17
-65 -4 -26 -4 -66 0 -88 6 -35 11 -42 40 -51 42 -14 78 -10 82 10 1 8 -7 30
-18 48 -15 25 -27 32 -51 32 -26 0 -30 3 -27 23 3 19 10 23 62 27 63 5 81 21
47 40 -24 12 -28 30 -7 30 7 0 19 7 26 15 25 30 155 11 316 -45 94 -32 134
-38 134 -17 0 21 -50 63 -105 89 l-50 24 3 95 2 96 -47 21 c-66 30 -126 42
-254 49 -88 5 -109 3 -113 -8z m287 -46 c77 -31 115 -125 68 -172 -17 -17 -23
-17 -82 -5 -35 8 -98 14 -139 14 -41 0 -85 3 -97 6 -36 10 -27 32 15 39 40 6
183 -8 242 -25 51 -15 70 -13 47 5 -10 7 -49 18 -85 24 -37 6 -96 15 -131 21
-73 11 -111 32 -111 60 0 54 168 74 273 33z m14 -209 c90 -16 161 -42 181 -67
9 -11 -13 -7 -80 16 -91 30 -99 31 -333 36 -230 6 -237 6 -170 18 141 25 253
24 402 -3z m-267 -49 c0 -8 -6 -15 -14 -15 -7 0 -19 7 -26 15 -11 13 -8 15 14
15 16 0 26 -5 26 -15z"/>
<path d="M9460 5013 c0 -3 9 -16 19 -30 24 -30 19 -46 -28 -96 l-36 -39 30 4
c23 2 37 14 60 50 17 26 33 48 37 48 4 0 0 -23 -8 -51 -9 -28 -12 -63 -9 -80
8 -35 -12 -55 -121 -125 -48 -32 -74 -55 -74 -67 0 -27 19 -57 35 -57 17 0 20
21 5 36 -19 19 0 39 77 79 85 44 108 72 116 143 3 26 9 73 13 105 l6 57 -30 0
c-17 0 -33 4 -36 9 -6 9 -56 22 -56 14z"/>
<path d="M9435 4970 c-8 -12 20 -24 35 -15 5 3 10 10 10 16 0 12 -37 12 -45
-1z"/>
<path d="M3101 3959 c-18 -94 -24 -179 -13 -179 17 0 21 12 33 114 9 69 9 100
2 107 -8 8 -14 -4 -22 -42z"/>
<path d="M3160 3976 c-5 -13 -14 -62 -20 -108 -7 -53 -18 -93 -31 -111 -22
-30 -19 -57 4 -57 24 0 36 23 51 96 22 108 30 204 17 204 -6 0 -16 -11 -21
-24z"/>
<path d="M5106 3893 c10 -16 39 -54 66 -86 26 -32 55 -72 64 -90 18 -36 53
-77 66 -77 14 0 9 68 -6 73 -8 3 -39 39 -70 81 -57 75 -108 126 -128 126 -6 0
-2 -12 8 -27z"/>
<path d="M4155 3432 c13 -26 38 -99 55 -161 33 -123 52 -168 58 -140 7 38 -68
308 -94 333 -8 9 -22 16 -29 16 -11 0 -8 -12 10 -48z"/>
<path d="M4160 3235 c0 -17 31 -75 40 -75 6 0 1 18 -10 40 -18 36 -30 49 -30
35z"/>
<path d="M5116 3148 c-17 -23 -23 -69 -7 -52 9 10 32 74 26 74 -2 0 -11 -10
-19 -22z"/>
<path d="M4000 3103 c0 -18 47 -69 56 -60 4 4 -6 22 -24 40 -18 17 -32 26 -32
20z"/>
<path d="M5141 3052 c-7 -24 -10 -49 -8 -55 2 -7 10 7 16 31 7 24 10 49 8 55
-2 7 -10 -7 -16 -31z"/>
<path d="M3970 3049 c12 -22 33 -33 51 -27 15 5 -29 48 -48 48 -11 0 -11 -5
-3 -21z"/>
<path d="M4810 3063 c0 -17 29 -81 40 -88 20 -12 10 32 -15 65 -14 19 -25 29
-25 23z"/>
<path d="M3940 3021 c0 -13 29 -35 37 -28 7 8 -15 37 -28 37 -5 0 -9 -4 -9 -9z"/>
<path d="M4771 2971 c13 -25 30 -46 37 -49 19 -6 -9 47 -39 73 l-22 20 24 -44z"/>
<path d="M4741 2915 c0 -14 28 -50 34 -43 3 3 -3 16 -14 29 -11 13 -20 20 -20
14z"/>
<path d="M5220 2766 c0 -102 13 -135 25 -61 7 53 -3 155 -16 155 -5 0 -9 -42
-9 -94z"/>
<path d="M1720 2390 c0 -11 5 -20 10 -20 6 0 10 9 10 20 0 11 -4 20 -10 20 -5
0 -10 -9 -10 -20z"/>
<path d="M5270 2292 c0 -6 22 -37 48 -69 78 -94 83 -105 89 -193 6 -86 17 -89
28 -8 8 53 26 78 56 78 10 0 19 5 19 10 0 16 -46 102 -69 130 l-21 25 -6 -22
c-3 -13 -8 -23 -11 -23 -12 0 -91 45 -110 63 -13 11 -23 15 -23 9z"/>
<path d="M4603 1643 c15 -2 39 -2 55 0 15 2 2 4 -28 4 -30 0 -43 -2 -27 -4z"/>
<path d="M746 1621 c5 -5 23 -13 39 -17 27 -7 29 -6 16 9 -7 10 -25 17 -39 17
-16 0 -22 -4 -16 -9z"/>
<path d="M855 1607 c-11 -8 -41 -19 -65 -25 -38 -8 -24 -10 90 -10 159 -1 201
9 125 28 -84 20 -128 22 -150 7z"/>
<path d="M523 1603 c15 -2 37 -2 50 0 12 2 0 4 -28 4 -27 0 -38 -2 -22 -4z"/>
<path d="M1948 1573 c-27 -7 -22 -32 8 -39 30 -8 137 0 155 12 38 23 -94 45
-163 27z"/>
<path d="M538 1553 c12 -2 32 -2 45 0 12 2 2 4 -23 4 -25 0 -35 -2 -22 -4z"/>
<path d="M2793 1525 c-48 -21 -40 -26 12 -8 25 8 45 17 45 19 0 8 -25 3 -57
-11z"/>
<path d="M5158 1523 c12 -2 30 -2 40 0 9 3 -1 5 -23 4 -22 0 -30 -2 -17 -4z"/>
<path d="M830 1510 c-56 -6 -49 -7 50 -7 63 -1 138 2 165 7 41 6 33 7 -50 7
-55 0 -129 -3 -165 -7z"/>
<path d="M5528 1503 c6 -2 18 -2 25 0 6 3 1 5 -13 5 -14 0 -19 -2 -12 -5z"/>
<path d="M5747 1499 c5 -4 105 -9 223 -12 130 -4 193 -2 160 3 -72 10 -393 19
-383 9z"/>
<path d="M2675 1485 c-24 -11 -26 -14 -9 -14 11 -1 29 6 40 14 24 18 8 18 -31
0z"/>
<path d="M4558 1493 c12 -2 32 -2 45 0 12 2 2 4 -23 4 -25 0 -35 -2 -22 -4z"/>
<path d="M2784 1461 c-98 -25 -188 -59 -159 -61 9 0 276 75 300 84 35 15 -48
1 -141 -23z"/>
<path d="M6230 1480 c0 -5 15 -10 33 -10 24 0 28 3 17 10 -20 13 -50 13 -50 0z"/>
<path d="M2517 1446 c-65 -27 -74 -33 -63 -43 9 -10 141 34 156 52 19 23 -25
19 -93 -9z"/>
<path d="M3938 1453 c12 -2 32 -2 45 0 12 2 2 4 -23 4 -25 0 -35 -2 -22 -4z"/>
<path d="M4083 1453 c9 -2 25 -2 35 0 9 3 1 5 -18 5 -19 0 -27 -2 -17 -5z"/>
<path d="M5455 1450 c44 -11 67 -11 60 0 -3 6 -25 9 -48 9 -40 -1 -40 -2 -12
-9z"/>
<path d="M8660 1449 c-516 -8 -493 -7 -485 -19 8 -13 264 -13 840 1 702 16
865 26 425 26 -195 -1 -546 -4 -780 -8z"/>
<path d="M3040 1440 c0 -5 9 -10 20 -10 11 0 20 5 20 10 0 6 -9 10 -20 10 -11
0 -20 -4 -20 -10z"/>
<path d="M5565 1441 c11 -5 65 -10 120 -10 77 -1 106 -5 124 -18 19 -13 28
-14 42 -5 12 8 83 13 201 14 165 1 173 2 88 9 -168 12 -597 20 -575 10z"/>
<path d="M2857 1420 c-65 -12 -55 -23 16 -17 79 7 127 27 62 26 -22 -1 -57 -5
-78 -9z"/>
<path d="M9035 1404 c-201 -6 -541 -24 -589 -30 -79 -11 -51 -19 42 -12 48 3
436 7 862 7 426 1 874 4 995 9 216 7 218 7 105 13 -138 8 -1259 18 -1415 13z"/>
<path d="M3035 1370 c-58 -5 -47 -7 60 -7 72 0 164 3 205 7 65 6 56 7 -60 7
-74 0 -166 -3 -205 -7z"/>
<path d="M8395 1323 c-22 -3 -44 -9 -49 -14 -6 -5 49 -9 145 -9 84 0 179 -3
209 -6 42 -5 52 -4 44 5 -20 21 -230 35 -349 24z"/>
<path d="M8050 1301 c8 -4 28 -11 43 -15 21 -5 28 -3 25 6 -3 7 -22 14 -44 16
-26 1 -34 -1 -24 -7z"/>
<path d="M9225 1300 c-11 -5 253 -8 615 -8 355 1 582 5 515 8 -175 10 -1106
10 -1130 0z"/>
<path d="M8089 1241 c27 -21 100 -46 108 -37 7 7 -96 56 -117 56 -10 0 -7 -7
9 -19z"/>
<path d="M8260 1250 c0 -13 77 -49 103 -50 28 0 10 20 -37 41 -47 21 -66 24
-66 9z"/>
<path d="M8390 1240 c0 -12 35 -31 44 -23 8 9 -14 33 -30 33 -8 0 -14 -4 -14
-10z"/>
<path d="M8511 1236 c-9 -10 -8 -15 3 -19 16 -6 40 16 29 26 -10 11 -19 8 -32
-7z"/>
<path d="M10190 1209 c74 -3 189 -6 255 -6 l120 0 -100 7 c-55 4 -170 7 -255
7 l-155 0 135 -8z"/>
<path d="M10753 1193 c15 -2 39 -2 55 0 15 2 2 4 -28 4 -30 0 -43 -2 -27 -4z"/>
<path d="M12410 1161 c0 -13 41 -41 60 -41 10 1 6 9 -13 25 -29 26 -47 32 -47
16z"/>
<path d="M12270 1136 c25 -13 61 -26 80 -30 35 -7 35 -6 -10 18 -25 13 -61 26
-80 30 -35 7 -35 6 10 -18z"/>
<path d="M12532 1123 c2 -10 10 -18 18 -18 22 0 18 29 -3 33 -14 3 -18 -1 -15
-15z"/>
</g>
</svg>
